<?xml version="1.0" encoding="iso-8859-1"?>
<!-- Generator: Adobe Illustrator 19.0.0, SVG Export Plug-In . SVG Version: 6.00 Build 0)  -->
<svg version="1.1" id="Capa_1" xmlns="http://www.w3.org/2000/svg" xmlns:xlink="http://www.w3.org/1999/xlink" x="0px" y="0px"
	 viewBox="0 0 480 480" style="enable-background:new 0 0 480 480;" xml:space="preserve">
<path style="fill:#8FB571;" d="M390.512,265.494L328,203.358L88,410.974h52.688l-68.688,40h384V227.358L390.512,265.494z"/>
<path style="fill:#366130;" d="M72,450.974l384-223.616v223.616H72z"/>
<circle style="fill:#B99471;" cx="120" cy="58.974" r="32"/>
<g>
	<path style="fill:#FDEBEC;" d="M441.144,98.646c-3.8-2.254-8.708-1.002-10.962,2.798c-0.002,0.003-0.004,0.007-0.006,0.01
		l-8.216,13.856c-2.253,3.802-0.998,8.711,2.804,10.964c3.802,2.253,8.711,0.998,10.964-2.804l0,0l8.216-13.864
		C446.197,105.806,444.943,100.9,441.144,98.646L441.144,98.646z"/>
	<path style="fill:#FDEBEC;" d="M442.4,145.806c2.164,3.849,7.037,5.217,10.888,3.056l14.24-8c3.805-2.246,5.068-7.152,2.822-10.956
		c-2.176-3.685-6.867-5.006-10.646-2.996l-14.24,8c-3.854,2.16-5.228,7.036-3.067,10.89
		C442.398,145.802,442.399,145.804,442.4,145.806z"/>
</g>
<path style="fill:#BF6F6E;" d="M472,163.358h-16.44c-4.418,0-8,3.582-8,8s3.582,8,8,8H472c4.418,0,8-3.582,8-8
	S476.418,163.358,472,163.358z"/>
<path style="fill:#B5DEF3;" d="M224,362.966c-4.418,0-8-3.582-8-8V211.358c0-4.418,3.582-8,8-8s8,3.582,8,8v143.608
	C232,359.384,228.418,362.966,224,362.966z"/>
<path style="fill:#527592;" d="M32,83.358c13.255,0,24,10.745,24,24v120l0,0c-26.51,0-48-21.49-48-48v-72
	C8,94.103,18.745,83.358,32,83.358z"/>
<circle style="fill:#9C1C1F;" cx="400" cy="171.358" r="24"/>
<path id="SVGCleanerId_0" style="fill:#FDEBEC;" d="M428.8,127.398c-4.418-0.036-7.971-3.646-7.935-8.065
	c0.011-1.398,0.389-2.769,1.095-3.975l8.216-13.856c2.251-3.802,7.158-5.059,10.96-2.808c3.802,2.251,5.059,7.158,2.808,10.96
	l-8.216,13.864C434.269,125.947,431.634,127.423,428.8,127.398z"/>
<g>
	<path id="SVGCleanerId_0_1_" style="fill:#FDEBEC;" d="M428.8,127.398c-4.418-0.036-7.971-3.646-7.935-8.065
		c0.011-1.398,0.389-2.769,1.095-3.975l8.216-13.856c2.251-3.802,7.158-5.059,10.96-2.808c3.802,2.251,5.059,7.158,2.808,10.96
		l-8.216,13.864C434.269,125.947,431.634,127.423,428.8,127.398z"/>
</g>
<g>
	<path style="fill:#FDEBEC;" d="M449.36,149.894c-4.418,0.002-8.002-3.578-8.004-7.996c-0.001-2.894,1.56-5.563,4.084-6.98l14.24-8
		c3.901-2.075,8.745-0.594,10.82,3.306c2.01,3.779,0.69,8.47-2.996,10.646l-14.24,8C452.073,149.543,450.728,149.896,449.36,149.894
		z"/>
	<path style="fill:#FDEBEC;" d="M472,179.358h-16.44c-4.418,0-8-3.582-8-8s3.582-8,8-8H472c4.418,0,8,3.582,8,8
		S476.418,179.358,472,179.358z"/>
	<path style="fill:#FDEBEC;" d="M344,179.358h-16.44c-4.418,0-8-3.582-8-8s3.582-8,8-8H344c4.418,0,8,3.582,8,8
		S348.418,179.358,344,179.358z"/>
	<path style="fill:#FDEBEC;" d="M350.224,147.894c-1.37-0.001-2.717-0.353-3.912-1.024l-14.232-8
		c-3.853-2.165-5.221-7.043-3.056-10.896s7.043-5.221,10.896-3.056l14.24,8c3.853,2.163,5.223,7.039,3.06,10.892
		C355.801,146.339,353.124,147.901,350.224,147.894z"/>
	<path style="fill:#FDEBEC;" d="M371.304,127.398c-2.827,0.002-5.446-1.488-6.888-3.92l-8.224-13.864
		c-2.251-3.802-0.994-8.709,2.808-10.96c3.802-2.251,8.709-0.994,10.96,2.808l8.216,13.896c2.253,3.8,0.999,8.708-2.801,10.961
		c-1.232,0.731-2.638,1.117-4.071,1.119V127.398z"/>
	<path style="fill:#FDEBEC;" d="M400.072,119.894c-4.418,0-8-3.582-8-8v-16c0-4.418,3.582-8,8-8s8,3.582,8,8v16
		C408.072,116.312,404.49,119.894,400.072,119.894z"/>
</g>
<g>
	<path style="fill:#527592;" d="M105.824,30.422c0.92-0.464,1.848-0.896,2.816-1.272C107.672,29.518,106.752,29.966,105.824,30.422z
		"/>
	<path style="fill:#527592;" d="M131.36,29.15c0.968,0.376,1.896,0.8,2.816,1.272C133.248,29.966,132.328,29.518,131.36,29.15z"/>
	<path style="fill:#527592;" d="M136.12,31.478c1.108,0.648,2.176,1.362,3.2,2.136C138.298,32.838,137.229,32.124,136.12,31.478z"/>
	<path style="fill:#527592;" d="M125.936,27.574c0.8,0.144,1.496,0.384,2.248,0.592C127.432,27.966,126.704,27.718,125.936,27.574z"
		/>
	<path style="fill:#527592;" d="M111.816,28.158c0.752-0.208,1.48-0.448,2.248-0.592C113.296,27.718,112.568,27.966,111.816,28.158z
		"/>
	<path style="fill:#527592;" d="M100.688,33.614c1.021-0.778,2.09-1.491,3.2-2.136C102.779,32.124,101.71,32.838,100.688,33.614z"/>
	<path style="fill:#527592;" d="M100,34.198c-5.332,4.287-9.139,10.178-10.856,16.8h0.064C90.95,44.403,94.726,38.524,100,34.198z"
		/>
	<path style="fill:#527592;" d="M150.808,50.974h0.064c-1.72-6.619-5.523-12.509-10.848-16.8
		C145.294,38.503,149.067,44.38,150.808,50.974L150.808,50.974z"/>
</g>
<g>
	<path style="fill:#BF6F6E;" d="M100,34.198c0.232-0.192,0.464-0.4,0.704-0.584C100.448,33.798,100.216,33.998,100,34.198z"/>
	<path style="fill:#BF6F6E;" d="M103.88,31.478c0.64-0.376,1.28-0.728,1.944-1.056C105.168,30.758,104.512,31.102,103.88,31.478z"/>
	<path style="fill:#BF6F6E;" d="M114.064,27.574c1.956-0.383,3.943-0.584,5.936-0.6C118.007,26.986,116.019,27.187,114.064,27.574z"
		/>
	<path style="fill:#BF6F6E;" d="M108.64,29.15c1.048-0.387,2.116-0.715,3.2-0.984C110.756,28.435,109.688,28.763,108.64,29.15z"/>
	<path style="fill:#BF6F6E;" d="M139.312,33.614c0.24,0.184,0.472,0.392,0.712,0.584C139.784,34.006,139.552,33.798,139.312,33.614z
		"/>
	<path style="fill:#BF6F6E;" d="M120,26.974c1.993,0.016,3.98,0.217,5.936,0.6C123.981,27.187,121.993,26.986,120,26.974z"/>
	<path style="fill:#BF6F6E;" d="M128.184,28.158c1.084,0.269,2.152,0.597,3.2,0.984C130.336,28.755,129.268,28.427,128.184,28.158z"
		/>
	<path style="fill:#BF6F6E;" d="M134.176,30.422c0.664,0.328,1.304,0.68,1.944,1.056C135.488,31.102,134.832,30.758,134.176,30.422z
		"/>
</g>
<g>
	<path style="fill:#527592;" d="M106.104,30.27c0.8-0.384,1.6-0.752,2.4-1.072C107.664,29.518,106.896,29.886,106.104,30.27z"/>
	<path style="fill:#527592;" d="M112,28.11c0.672-0.176,1.328-0.4,2.024-0.536C113.328,27.71,112.68,27.934,112,28.11z"/>
	<path style="fill:#527592;" d="M125.976,27.574c0.696,0.136,1.352,0.36,2.024,0.536C127.32,27.934,126.672,27.71,125.976,27.574z"
		/>
	<path style="fill:#527592;" d="M136.472,31.67c0.864,0.528,1.72,1.08,2.528,1.68C138.184,32.75,137.344,32.198,136.472,31.67z"/>
	<path style="fill:#527592;" d="M131.512,29.198c0.8,0.32,1.6,0.688,2.4,1.072C133.104,29.886,132.336,29.518,131.512,29.198z"/>
	<path style="fill:#527592;" d="M101,33.35c0.8-0.6,1.664-1.152,2.528-1.68C102.656,32.198,101.816,32.75,101,33.35z"/>
	<path style="fill:#527592;" d="M96.648,37.222c0.838-0.868,1.722-1.691,2.648-2.464C98.37,35.531,97.486,36.354,96.648,37.222z"/>
	<path style="fill:#527592;" d="M96.136,37.846c-3.34,3.761-5.742,8.26-7.008,13.128C90.409,46.112,92.809,41.616,96.136,37.846z"/>
	<path style="fill:#527592;" d="M150.872,50.974c-1.266-4.868-3.668-9.367-7.008-13.128
		C147.191,41.616,149.591,46.112,150.872,50.974z"/>
	<path style="fill:#527592;" d="M140.704,34.758c0.926,0.773,1.81,1.596,2.648,2.464C142.514,36.354,141.63,35.531,140.704,34.758z"
		/>
</g>
<g>
	<path style="fill:#BF6F6E;" d="M99.296,34.758c0.56-0.48,1.112-0.96,1.704-1.408C100.408,33.798,99.856,34.278,99.296,34.758z"/>
	<path style="fill:#BF6F6E;" d="M103.528,31.67c0.8-0.504,1.696-0.976,2.576-1.4C105.224,30.702,104.36,31.158,103.528,31.67z"/>
	<path style="fill:#BF6F6E;" d="M96.136,37.846c0.176-0.2,0.328-0.424,0.512-0.624C96.464,37.422,96.312,37.646,96.136,37.846z"/>
	<path style="fill:#BF6F6E;" d="M128,28.11c1.192,0.291,2.364,0.655,3.512,1.088C130.364,28.764,129.192,28.401,128,28.11z"/>
	<path style="fill:#BF6F6E;" d="M139,33.35c0.592,0.448,1.144,0.928,1.704,1.408C140.144,34.278,139.592,33.798,139,33.35z"/>
	<path style="fill:#BF6F6E;" d="M120,26.974c2.006,0.016,4.007,0.217,5.976,0.6C124.007,27.187,122.006,26.986,120,26.974z"/>
	<path style="fill:#BF6F6E;" d="M108.488,29.198c1.148-0.433,2.32-0.797,3.512-1.088C110.808,28.401,109.636,28.764,108.488,29.198z
		"/>
	<path style="fill:#BF6F6E;" d="M143.352,37.222c0.184,0.2,0.336,0.424,0.512,0.624C143.688,37.646,143.536,37.422,143.352,37.222z"
		/>
	<path style="fill:#BF6F6E;" d="M114.024,27.574c1.969-0.383,3.97-0.584,5.976-0.6C117.994,26.986,115.993,27.187,114.024,27.574z"
		/>
	<path style="fill:#BF6F6E;" d="M133.896,30.27c0.88,0.424,1.736,0.896,2.576,1.4C135.64,31.158,134.776,30.702,133.896,30.27z"/>
	<path style="fill:#BF6F6E;" d="M176,50.974h-25.128c-1.281-4.862-3.681-9.358-7.008-13.128c-0.176-0.2-0.328-0.424-0.512-0.624
		c-0.838-0.868-1.722-1.691-2.648-2.464c-0.56-0.48-1.112-0.96-1.704-1.408c-0.8-0.6-1.664-1.152-2.528-1.68s-1.696-0.976-2.576-1.4
		s-1.6-0.752-2.4-1.072c-1.142-0.433-2.31-0.796-3.496-1.088c-0.672-0.176-1.328-0.4-2.024-0.536c-3.944-0.8-8.008-0.8-11.952,0
		c-0.696,0.136-1.352,0.36-2.024,0.536c-1.192,0.291-2.364,0.655-3.512,1.088c-0.8,0.32-1.6,0.688-2.4,1.072s-1.736,0.896-2.576,1.4
		s-1.72,1.08-2.528,1.68c-0.592,0.448-1.144,0.928-1.704,1.408c-0.926,0.773-1.81,1.596-2.648,2.464
		c-0.184,0.2-0.336,0.424-0.512,0.624c-3.327,3.77-5.727,8.266-7.008,13.128c-0.714,2.608-1.093,5.296-1.128,8
		c0.034,2.704,0.413,5.392,1.128,8H176c4.418,0,8-3.582,8-8S180.418,50.974,176,50.974z"/>
</g>
<path style="fill:#D3DBE5;" d="M135.6,244.158c0.152-3.552,0.4-7.096,0.4-10.656V123.358H88v95.792
	c0.012,53.389-17.404,105.323-49.6,147.912c-6.629,11.565-2.703,26.311,8.8,33.048c11.4,6.64,26.025,2.78,32.664-8.62
	c0.046-0.078,0.091-0.157,0.136-0.236l13.064-19.04c17.743-25.929,30.335-55.028,37.088-85.712L160,301.542v29.816
	c0,8.837,7.163,16,16,16s16-7.163,16-16V277.35L135.6,244.158z"/>
<path style="fill:#527592;" d="M88,123.358h48v104H88V123.358z"/>
<path style="fill:#B5DEF3;" d="M224,187.614c-4.418,0-8-3.582-8-8v-32.256c0-4.418,3.582-8,8-8s8,3.582,8,8v32.256
	C232,184.032,228.418,187.614,224,187.614z"/>
<path style="fill:#B99471;" d="M136,130.71l44.8,48.392h52.264c8.574,0.338,15.256,7.553,14.936,16.128
	c0.315,8.573-6.364,15.786-14.936,16.128h-59.728L136,171.038V130.71z"/>
<path d="M452,220.806l-61.04,35.2c-0.326-0.722-0.767-1.386-1.304-1.968l-56-56c-2.976-2.976-7.75-3.137-10.92-0.368l-64,56
	c-3.338,2.907-3.687,7.97-0.78,11.308c2.907,3.338,7.97,3.687,11.308,0.78l58.4-51.08l49.376,49.4L232,347.822V219.734h1.072
	c13.328-0.642,23.611-11.967,22.969-25.295c-0.599-12.429-10.54-22.37-22.969-22.969H232v-23.736c0-4.418-3.582-8-8-8s-8,3.582-8,8
	v23.736h-31.712L144,127.958v-4.224c0-4.418-3.582-8-8-8H88c-4.418,0-8,3.582-8,8v95.784c-0.073,51.629-16.9,101.841-47.952,143.088
	c-0.208,0.271-0.395,0.557-0.56,0.856c-8.777,15.385-3.558,34.968,11.712,43.944c4.854,2.84,10.376,4.337,16,4.336
	c2.799-0.001,5.585-0.37,8.288-1.096c8.041-2.098,14.915-7.311,19.104-14.488l13.064-19.032
	c16.381-23.936,28.506-50.522,35.84-78.584L152,306.846v24.888c0,13.255,10.745,24,24,24s24-10.745,24-24v-53.976
	c0-2.858-1.525-5.499-4-6.928l-52.248-30.096c0.064-2.28,0.256-4.544,0.256-6.832v-42.08l23.472,25.344
	c1.512,1.635,3.637,2.565,5.864,2.568H216v135.624c0.051,0.519,0.155,1.031,0.312,1.528L64,444.806
	c-3.841,2.183-5.185,7.067-3.002,10.908c2.183,3.841,7.067,5.185,10.908,3.002c0.031-0.018,0.062-0.036,0.093-0.054l388-224
	c3.812-2.234,5.09-7.136,2.856-10.947C460.642,219.938,455.805,218.642,452,220.806L452,220.806z M96,131.734h32v88H96V131.734z
	 M86.472,368.07l-13.416,19.584c-4.323,7.641-14.022,10.331-21.663,6.008c-0.051-0.029-0.102-0.058-0.153-0.088
	c-7.535-4.452-10.221-14.053-6.088-21.768c29.57-39.531,47.006-86.808,50.184-136.072h32.592
	C127.665,283.001,113.223,329.101,86.472,368.07L86.472,368.07z M184,282.35v49.384c0,4.418-3.582,8-8,8s-8-3.582-8-8v-29.816
	c-0.003-3.018-1.705-5.778-4.4-7.136l-24.4-12.312c1.536-7.904,2.72-15.872,3.496-23.936L184,282.35z M144,168.278v-16.8
	l30.928,33.408c1.515,1.634,3.644,2.562,5.872,2.56h40.64c1.636,0.694,3.484,0.694,5.12,0h6.512
	c4.491,0.734,7.537,4.971,6.802,9.462c-0.571,3.493-3.309,6.231-6.802,6.802H176.8L144,168.278z"/>
<path d="M120,100.246c19.07-0.074,35.456-13.556,39.2-32.256H176c4.418,0,8-3.582,8-8s-3.582-8-8-8h-16.8
	c-4.56-21.616-25.779-35.442-47.395-30.883S76.363,46.886,80.923,68.502C84.821,86.982,101.114,100.217,120,100.246z M120,84.246
	c-10.21-0.07-19.258-6.592-22.552-16.256h45.104C139.258,77.654,130.21,84.176,120,84.246z M120,35.734
	c10.21,0.07,19.258,6.592,22.552,16.256H97.448C100.742,42.326,109.79,35.804,120,35.734z"/>
<path d="M64,227.734v-120c0-17.673-14.327-32-32-32s-32,14.327-32,32v72c0.04,30.911,25.089,55.96,56,56
	C60.418,235.734,64,232.152,64,227.734z M48,218.934c-18.611-3.827-31.976-20.199-32-39.2v-72c0-8.837,7.163-16,16-16
	s16,7.163,16,16V218.934z"/>
<path d="M368,171.734c0,17.673,14.327,32,32,32s32-14.327,32-32s-14.327-32-32-32S368,154.061,368,171.734z M400,155.734
	c8.837,0,16,7.163,16,16s-7.163,16-16,16s-16-7.163-16-16S391.163,155.734,400,155.734z"/>
<path d="M441.144,99.03c-3.799-2.256-8.707-1.006-10.964,2.793c-0.001,0.002-0.003,0.005-0.004,0.007l-8.216,13.864
	c-2.251,3.802-0.994,8.709,2.808,10.96c3.802,2.251,8.709,0.994,10.96-2.808l8.216-13.856
	C446.197,106.19,444.943,101.284,441.144,99.03L441.144,99.03z"/>
<path d="M442.4,146.182c2.161,3.852,7.035,5.223,10.888,3.064l14.24-8c3.805-2.246,5.068-7.152,2.822-10.956
	c-2.176-3.685-6.867-5.006-10.646-2.996l-14.24,8C441.612,137.455,440.241,142.329,442.4,146.182z"/>
<path d="M472,163.734h-16.44c-4.418,0-8,3.582-8,8s3.582,8,8,8H472c4.418,0,8-3.582,8-8S476.418,163.734,472,163.734z"/>
<path d="M319.56,171.734c0,4.418,3.582,8,8,8H344c4.418,0,8-3.582,8-8s-3.582-8-8-8h-16.44
	C323.142,163.734,319.56,167.316,319.56,171.734z"/>
<path d="M339.92,125.294c-3.853-2.165-8.731-0.797-10.896,3.056s-0.797,8.731,3.056,10.896l14.232,8
	c3.853,2.167,8.733,0.801,10.9-3.052s0.801-8.733-3.052-10.9L339.92,125.294z"/>
<path d="M369.96,101.83c-2.253-3.802-7.162-5.057-10.964-2.804c-3.802,2.253-5.057,7.162-2.804,10.964l0,0l8.224,13.856
	c2.143,3.864,7.013,5.259,10.876,3.116c3.864-2.143,5.259-7.013,3.116-10.876c-0.074-0.133-0.151-0.263-0.232-0.391L369.96,101.83z"
	/>
<path d="M408.072,112.27v-16c0-4.418-3.582-8-8-8s-8,3.582-8,8v16c0,4.418,3.582,8,8,8S408.072,116.688,408.072,112.27z"/>
<g>
</g>
<g>
</g>
<g>
</g>
<g>
</g>
<g>
</g>
<g>
</g>
<g>
</g>
<g>
</g>
<g>
</g>
<g>
</g>
<g>
</g>
<g>
</g>
<g>
</g>
<g>
</g>
<g>
</g>
</svg>
