<?xml version="1.0" encoding="iso-8859-1"?>
<!-- Generator: Adobe Illustrator 19.0.0, SVG Export Plug-In . SVG Version: 6.00 Build 0)  -->
<svg version="1.1" id="Capa_1" xmlns="http://www.w3.org/2000/svg" xmlns:xlink="http://www.w3.org/1999/xlink" x="0px" y="0px"
	 viewBox="0 0 512 512" style="enable-background:new 0 0 512 512;" xml:space="preserve">
<g>
	<g>
		<path d="M357.06,229.028c-22.06-28.578-34.851-64.426-36.379-101.598c3.112-0.978,5.885-2.864,7.95-5.528
			c3.105-4.008,4.16-9.123,2.893-14.04l-4.507-17.427c7.133-2.037,12.376-8.603,12.376-16.385V54.141
			c0-9.396-7.645-17.04-17.04-17.04h-9.143l-6.446-24.921C304.905,5.008,298.432,0,291.022,0h-70.41
			c-7.41,0-13.884,5.008-15.741,12.182L198.426,37.1h-9.144c-9.396,0-17.04,7.645-17.04,17.04v19.91
			c0,7.782,5.243,14.348,12.376,16.384l-4.509,17.434c-1.266,4.912-0.21,10.027,2.896,14.034c2.158,2.785,5.09,4.718,8.375,5.652
			c-1.265,36.654-14.019,71.913-37.094,102.325c-8.276,10.914-14.703,23.009-19.104,35.946c-1.334,3.922,0.764,8.182,4.685,9.516
			c0.801,0.272,1.615,0.401,2.416,0.401c3.123,0,6.038-1.966,7.1-5.087c3.881-11.413,9.552-22.083,16.854-31.712
			c24.939-32.866,38.735-71.025,40.13-110.744h14.123v106.747c0,4.143,3.357,7.5,7.5,7.5c4.143,0,7.5-3.357,7.5-7.5v-23.48
			c3.988-1.797,10.665-3.697,15.209,0.848c2.648,2.648,6.882,2.908,9.866,0.649c0.966-0.73,8.854-6.394,15.578-2.371v24.353
			c0,4.143,3.357,7.5,7.5,7.5s7.5-3.357,7.5-7.5v-27.929c0-0.003,0-0.007,0-0.007V128.2H305.7
			c1.686,40.203,15.567,79.008,39.487,109.995c15.313,19.83,23.406,43.595,23.406,68.728c0,10.798-1.526,21.476-4.536,31.738
			c-1.166,3.975,1.11,8.143,5.085,9.309c0.705,0.206,1.416,0.305,2.114,0.305c3.244,0,6.234-2.121,7.194-5.391
			c3.412-11.635,5.143-23.733,5.143-35.961C383.594,278.443,374.419,251.507,357.06,229.028z M220.489,93.098V113.2h-24.638
			c-0.407,0-0.741-0.163-0.99-0.485c-0.175-0.226-0.356-0.601-0.229-1.097l5.306-20.518h20.828
			C220.59,91.737,220.489,92.405,220.489,93.098z M276.142,194.631c-7.247-1.467-14.404,0.567-19.69,3.28
			c-6.797-4.045-14.443-3.931-20.963-2.257v-67.454h40.654V194.631z M276.143,93.099V113.2h-0.001h-40.654V93.099
			c0-0.693-0.102-1.361-0.277-1.998h41.209C276.244,91.738,276.143,92.406,276.143,93.099z M189.281,76.102
			c-1.125,0-2.04-0.92-2.04-2.05V54.141c0-1.125,0.915-2.04,2.04-2.04h14.924c0.01,0,0.021,0.002,0.031,0.002
			c0.008,0,0.016-0.002,0.023-0.002h54.242c4.143,0,7.5-3.357,7.5-7.5s-3.357-7.5-7.5-7.5h-44.584l5.474-21.159
			c0.143-0.554,0.645-0.94,1.22-0.94h70.41c0.575,0,1.077,0.387,1.22,0.938l5.474,21.162h-10.214c-4.143,0-7.5,3.357-7.5,7.5
			c0,4.143,3.357,7.5,7.5,7.5h34.85c1.125,0,2.04,0.915,2.04,2.04v19.91c0,1.13-0.915,2.05-2.04,2.05H189.281z M316.774,112.715
			c-0.25,0.323-0.583,0.486-0.991,0.486h-2.76c-0.011,0-0.021,0-0.032,0h-21.848V93.099c0-0.693-0.101-1.361-0.277-1.998h20.83
			L317,111.613C317.13,112.116,316.949,112.49,316.774,112.715z"/>
	</g>
</g>
<g>
	<g>
		<path d="M363.384,361.274c-3.572-2.101-8.167-0.909-10.268,2.66c-20.239,34.4-57.355,55.59-97.16,55.59
			c-0.545,0-1.091-0.004-1.636-0.012c-60.51-0.883-110.261-50.837-110.905-111.355c-0.037-3.466,0.101-7.091,0.41-10.774
			c0.347-4.127-2.719-7.754-6.847-8.101c-4.105-0.34-7.755,2.717-8.101,6.847c-0.349,4.151-0.504,8.252-0.463,12.188
			c0.355,33.32,13.596,64.771,37.284,88.555c23.69,23.785,55.086,37.153,88.403,37.638c0.621,0.009,1.233,0.014,1.854,0.014
			c45.103-0.003,87.159-24.009,110.089-62.982C368.145,367.972,366.953,363.375,363.384,361.274z"/>
	</g>
</g>
<g>
	<g>
		<path d="M230.054,375.235c-39.098-11.192-46.69-50.939-47.004-52.678c-0.718-4.072-4.598-6.804-8.671-6.087
			c-4.081,0.71-6.813,4.593-6.104,8.674c0.358,2.063,9.344,50.683,57.649,64.511c0.69,0.198,1.385,0.292,2.068,0.292
			c3.262,0,6.264-2.146,7.206-5.438C236.34,380.528,234.035,376.375,230.054,375.235z"/>
	</g>
</g>
<g>
	<g>
		<path d="M256.002,454.037c-4.143,0-7.5,3.357-7.5,7.5V504.5c0,4.143,3.357,7.5,7.5,7.5c4.143,0,7.5-3.357,7.5-7.5v-42.963
			C263.502,457.395,260.144,454.037,256.002,454.037z"/>
	</g>
</g>
<g>
	<g>
		<path d="M173.969,436.161c-2.928-2.927-7.677-2.928-10.607,0.001l-30.379,30.379c-2.929,2.93-2.929,7.678,0.001,10.607
			c1.464,1.464,3.384,2.196,5.303,2.196s3.839-0.732,5.304-2.197l30.379-30.379C176.899,443.838,176.899,439.09,173.969,436.161z"/>
	</g>
</g>
<g>
	<g>
		<path d="M379.022,466.542l-30.38-30.379c-2.93-2.929-7.679-2.93-10.606-0.001c-2.93,2.93-2.93,7.678-0.001,10.607l30.379,30.379
			c1.465,1.465,3.384,2.197,5.304,2.197c1.919,0,3.839-0.732,5.303-2.196C381.951,474.219,381.951,469.471,379.022,466.542z"/>
	</g>
</g>
<g>
</g>
<g>
</g>
<g>
</g>
<g>
</g>
<g>
</g>
<g>
</g>
<g>
</g>
<g>
</g>
<g>
</g>
<g>
</g>
<g>
</g>
<g>
</g>
<g>
</g>
<g>
</g>
<g>
</g>
</svg>
