<?xml version="1.0" encoding="iso-8859-1"?>
<!-- Generator: Adobe Illustrator 19.0.0, SVG Export Plug-In . SVG Version: 6.00 Build 0)  -->
<svg version="1.1" id="Layer_1" xmlns="http://www.w3.org/2000/svg" xmlns:xlink="http://www.w3.org/1999/xlink" x="0px" y="0px"
	 viewBox="0 0 512 512" style="enable-background:new 0 0 512 512;" xml:space="preserve">
<path style="fill:#0065e1;" d="M464,240H48c-17.68,0-32,14.32-32,32c0,3.312,0.944,6.336,1.888,9.344
	c7.344,69.28,44.08,129.76,97.616,168.736C113.408,454.336,112,458.944,112,464c0,17.664,14.32,32,32,32h224
	c17.68,0,32-14.336,32-32c0-5.056-1.408-9.664-3.504-13.92c53.536-38.96,90.272-99.456,97.616-168.736
	c0.944-3.008,1.888-6.032,1.888-9.344C496,254.336,481.68,240,464,240z M440.16,308.384c-11.696,41.12-37.216,77.664-71.872,102.88
	c-2.848,2.064-6.144,3.056-9.408,3.056c-4.96,0-9.808-2.272-12.96-6.592c-5.2-7.12-3.632-17.152,3.52-22.352
	c28.912-21.024,50.192-51.504,59.936-85.744c2.4-8.496,11.312-13.632,19.76-11.008C437.632,291.04,442.576,299.872,440.16,308.384z"
	/>
<path style="fill:#0065e1;" d="M509.712,284.944c0.912-2.96,2.256-7.152,2.288-12.944c-0.016-26.512-21.488-47.984-48-48h-85.488
	l114.8-114.8C505.776,96.752,512.016,80.256,512,63.936c0.016-16.32-6.224-32.8-18.688-45.264
	C480.864,6.224,464.368-0.016,448.064,0c-16.32-0.016-32.8,6.224-45.264,18.688L197.488,224H48c-26.512,0.016-47.984,21.488-48,48
	c0.032,5.792,1.376,9.984,2.288,12.944C10.144,354,45.504,414.512,97.104,455.728C96.56,458.4,96,461.056,96,464
	c0.016,26.512,21.488,48,48,48h224c26.512,0,47.984-21.488,48-48c0-2.944-0.56-5.6-1.088-8.272
	C466.496,414.528,501.872,354.016,509.712,284.944z M425.424,41.312c6.224-6.208,14.336-9.296,22.64-9.312
	c8.288,0.016,16.416,3.104,22.624,9.312c6.208,6.224,9.296,14.336,9.312,22.624c-0.016,8.288-3.104,16.416-9.312,22.624L333.248,224
	h-90.512L425.424,41.312z M387.088,437.136c-6.288,4.576-8.368,13.008-4.944,20L384,464c-0.016,8.832-7.168,15.984-16,16H144
	c-8.832-0.016-15.984-7.168-16-16l1.872-6.864c3.424-6.976,1.344-15.424-4.944-20c-50-36.4-84.272-92.832-91.12-157.488
	l-0.624-3.072C32.16,273.52,31.968,272.192,32,272c0.016-8.832,7.168-16,16-16h156.112h135.76H464c8.832,0,15.984,7.168,16,16
	c0.032,0.192-0.16,1.52-1.168,4.592l-0.64,3.072C471.36,344.304,437.088,400.736,387.088,437.136z"/>
<g>
</g>
<g>
</g>
<g>
</g>
<g>
</g>
<g>
</g>
<g>
</g>
<g>
</g>
<g>
</g>
<g>
</g>
<g>
</g>
<g>
</g>
<g>
</g>
<g>
</g>
<g>
</g>
<g>
</g>
</svg>
