<?xml version="1.0" encoding="iso-8859-1"?>
<!-- Generator: Adobe Illustrator 19.0.0, SVG Export Plug-In . SVG Version: 6.00 Build 0)  -->
<svg version="1.1" id="Layer_1" xmlns="http://www.w3.org/2000/svg" xmlns:xlink="http://www.w3.org/1999/xlink" x="0px" y="0px"
	 viewBox="0 0 512 512" style="enable-background:new 0 0 512 512;" xml:space="preserve">
<path style="fill:#4D4D4D;" d="M176,32h160c8.832,0,16-7.168,16-16s-7.168-16-16-16H176c-8.832,0-16,7.168-16,16S167.168,32,176,32"
	/>
<path style="fill:#0065e1;" d="M419.312,256H92.688C84.752,276.08,80,297.6,80,320c0,97.04,78.96,176,176,176s176-78.96,176-176
	C432,297.6,427.248,276.08,419.312,256z M224,416c-17.68,0-32-14.336-32-32c0-17.68,14.32-32,32-32s32,14.32,32,32
	C256,401.664,241.68,416,224,416z M304,352c-8.832,0-16-7.168-16-16s7.168-16,16-16s16,7.168,16,16S312.832,352,304,352z"/>
<path style="fill:#0065e1;" d="M256,496v-16c-44.144,0-84.048-17.92-113.072-46.928C113.92,404.048,96,364.128,96,320
	c-0.016-67.344,42.896-127.984,106.72-150.672l10.64-3.776c6.368-2.272,10.64-8.32,10.64-15.088V32h64v118.464
	c0,6.768,4.272,12.816,10.64,15.072l10.64,3.776C373.12,192.016,416.016,252.656,416,320c0,44.128-17.92,84.048-46.928,113.072
	C340.048,462.08,300.144,480,256,480V496v16c105.92-0.032,191.968-86.096,192-192c-0.016-81.024-51.424-153.568-128-180.832l0,0V16
	c0-4.208-1.712-8.336-4.688-11.312C312.336,1.712,308.208,0,304,0h-96c-4.208,0-8.336,1.712-11.312,4.688S192,11.792,192,16v134.464
	h16l-5.36-15.072L192,139.168C115.424,166.432,64.016,238.976,64,320c0.032,105.904,86.08,191.968,192,192V496z"/>
<g>
</g>
<g>
</g>
<g>
</g>
<g>
</g>
<g>
</g>
<g>
</g>
<g>
</g>
<g>
</g>
<g>
</g>
<g>
</g>
<g>
</g>
<g>
</g>
<g>
</g>
<g>
</g>
<g>
</g>
</svg>
