<?xml version="1.0" encoding="iso-8859-1"?>
<!-- Generator: Adobe Illustrator 19.0.0, SVG Export Plug-In . SVG Version: 6.00 Build 0)  -->
<svg version="1.1" id="Layer_1" xmlns="http://www.w3.org/2000/svg" xmlns:xlink="http://www.w3.org/1999/xlink" x="0px" y="0px"
	 viewBox="0 0 511.392 511.392" style="enable-background:new 0 0 511.392 511.392;" xml:space="preserve">
<path style="fill:#0065e1;" d="M238.496,20.592l-7.872-13.92C195.936,26.368,156.96,41.2,121.344,41.104
	c-14.112,0-27.728-2.224-40.784-7.216c-5.632-2.16-11.456-3.2-17.152-3.2C38,30.72,15.776,51.168,15.696,78.544V192v7.04
	c0,145.04,96.144,272.496,235.6,312.352h8.8c139.456-39.856,235.6-167.312,235.6-312.352V192V78.544
	c-0.08-27.376-22.304-47.808-47.728-47.856c-5.68,0-11.52,1.04-17.152,3.2c-13.056,4.992-26.656,7.216-40.768,7.216
	c-35.616,0.096-74.592-14.736-109.28-34.432C273.024,2.272,264.368,0,255.696,0s-17.328,2.272-25.088,6.672L238.496,20.592
	l7.888,13.92c3.056-1.728,6.192-2.512,9.312-2.512s6.24,0.784,9.328,2.528c37.472,21.12,80.72,38.48,125.024,38.576
	c17.488,0,35.136-2.8,52.208-9.344l5.712-1.072c8.24,0.032,15.712,6.704,15.728,15.856V192v7.04
	c0,130.752-86.672,245.664-212.4,281.584l4.4,15.376l4.4-15.392c-125.728-35.904-212.4-150.816-212.4-281.568V192V78.544
	c0.016-9.152,7.472-15.824,15.728-15.872l5.712,1.088c17.072,6.528,34.72,9.344,52.208,9.344
	c44.304-0.096,87.552-17.456,125.024-38.576L238.496,20.592z"/>
<path style="fill:#0065e1;" d="M255.696,65.904c-56.176,29.616-119.76,50.496-176,35.008v98.128
	c0,111.216,71.696,210.752,176,246.656c104.304-35.904,176-135.44,176-246.656v-98.128
	C375.488,116.384,311.904,95.536,255.696,65.904z M335.696,256h-64v64h-32v-64h-64v-32h64v-64h32v64h64V256z"/>
<g>
</g>
<g>
</g>
<g>
</g>
<g>
</g>
<g>
</g>
<g>
</g>
<g>
</g>
<g>
</g>
<g>
</g>
<g>
</g>
<g>
</g>
<g>
</g>
<g>
</g>
<g>
</g>
<g>
</g>
</svg>
