<?xml version="1.0" encoding="iso-8859-1"?>
<!-- Generator: Adobe Illustrator 19.0.0, SVG Export Plug-In . SVG Version: 6.00 Build 0)  -->
<svg version="1.1" id="Layer_1" xmlns="http://www.w3.org/2000/svg" xmlns:xlink="http://www.w3.org/1999/xlink" x="0px" y="0px"
	 viewBox="0 0 511.994 511.994" style="enable-background:new 0 0 511.994 511.994;" xml:space="preserve">
<path style="fill:#4D4D4D;" d="M508.836,246.445c-0.496-0.624-28.016-37.632-72.976-75.088
	c-44.928-37.28-107.648-75.856-179.856-76.048c-72.208,0.192-134.928,38.768-179.872,76.048
	c-44.96,37.456-72.48,74.464-72.976,75.088c-4.208,5.664-4.208,13.44,0,19.104c0.496,0.624,28.016,37.632,72.976,75.088
	c44.944,37.28,107.664,75.856,179.872,76.048c72.208-0.192,134.928-38.768,179.872-76.048c44.96-37.456,72.48-74.464,72.976-75.088
	C513.044,259.885,513.044,252.109,508.836,246.445z M407.364,322.573c-41.12,32.672-94.96,62.256-151.36,62.112
	c-60.144,0.192-117.424-33.568-159.392-68.64c-20.96-17.44-38.048-35.008-49.808-48.112c-4.224-4.72-7.504-8.576-10.288-11.936
	c11.552-13.888,35.648-40.864,68.128-66.56c41.136-32.688,94.976-62.288,151.36-62.128c60.144-0.192,117.424,33.584,159.392,68.64
	c20.96,17.44,38.048,35.008,49.808,48.112c4.224,4.72,7.504,8.576,10.288,11.936C463.94,269.885,439.844,296.861,407.364,322.573z"
	/>
<path style="fill:#FF8080;" d="M256.004,160.685c-52.944,0-96,43.056-96,96s43.056,96,96,96s96-43.056,96-96
	S308.948,160.685,256.004,160.685z M224.004,255.309c-17.664,0-32-14.336-32-32c0-17.68,14.336-32,32-32c17.68,0,32,14.32,32,32
	C256.004,240.973,241.684,255.309,224.004,255.309z"/>
<g>
</g>
<g>
</g>
<g>
</g>
<g>
</g>
<g>
</g>
<g>
</g>
<g>
</g>
<g>
</g>
<g>
</g>
<g>
</g>
<g>
</g>
<g>
</g>
<g>
</g>
<g>
</g>
<g>
</g>
</svg>
