<?xml version="1.0" encoding="iso-8859-1"?>
<!-- Generator: Adobe Illustrator 19.0.0, SVG Export Plug-In . SVG Version: 6.00 Build 0)  -->
<svg version="1.1" id="Layer_1" xmlns="http://www.w3.org/2000/svg" xmlns:xlink="http://www.w3.org/1999/xlink" x="0px" y="0px"
	 viewBox="0 0 512 512" style="enable-background:new 0 0 512 512;" xml:space="preserve">
<path style="fill:#4D4D4D;" d="M367.824,19.984l3.872-15.52C359.584,1.44,347.632,0,336,0c-34.368-0.016-65.568,12.56-90.048,32.368
	L256,44.816l10.048-12.448C241.568,12.56,210.368-0.016,176,0c-11.632,0-23.584,1.44-35.696,4.464
	c-51.04,12.832-92.048,53.568-104.24,105.024C33.312,121.152,32,132.72,32,144c-0.016,34.752,12.512,66.592,33.104,91.264
	C84.16,258.144,96.016,284.688,96,312.56V448c0.064,35.312,28.688,63.936,64,64c35.312-0.064,63.936-28.688,64-64v-64
	c0.032-17.664,14.336-31.968,32-32c17.664,0.032,31.968,14.336,32,32v64c0.064,35.312,28.688,63.936,64,64
	c35.312-0.064,63.936-28.688,64-64V312.56c-0.016-27.872,11.84-54.4,30.896-77.296C467.488,210.592,480,178.752,480,144
	c0-11.28-1.312-22.832-4.048-34.512c-12.208-51.456-53.2-92.192-104.24-105.024L367.824,19.984l-3.872,15.52
	c39.312,9.728,71.744,42.08,80.848,81.296c2.176,9.328,3.2,18.4,3.2,27.2c-0.016,27.04-9.632,51.504-25.68,70.784
	c-22.576,27.072-38.288,60.624-38.32,97.776V448c-0.032,17.488-14.512,31.968-32,32c-17.488-0.032-31.968-14.512-32-32v-64
	c-0.016-35.344-28.656-63.984-64-64c-35.36,0.016-63.984,28.656-64,64v64c-0.032,17.488-14.512,31.968-32,32
	c-17.488-0.032-31.968-14.512-32-32V312.56c-0.016-37.152-15.744-70.704-38.32-97.776C73.632,195.504,64.016,171.04,64,144
	c0-8.8,1.024-17.872,3.216-27.2c9.104-39.216,41.52-71.568,80.832-81.296C157.68,33.104,166.992,32,176,32
	c26.512,0.016,50.496,9.584,69.952,25.264c5.856,4.736,14.24,4.736,20.112,0C285.504,41.584,309.488,32.016,336,32
	c9.008,0,18.32,1.104,27.952,3.504L367.824,19.984z"/>
<path style="fill:#FF8080;" d="M336.032,96c3.936,0,8.144,0.512,12.48,1.584c16.192,3.872,30.528,18.368,33.952,33.84
	c2.016,8.608,10.624,13.936,19.232,11.92s13.936-10.624,11.92-19.232c-6.8-28.096-29.216-50.352-57.36-57.584
	C349.504,64.864,342.72,64,336.032,64c-8.832,0-16,7.168-16,16S327.2,96,336.032,96L336.032,96z"/>
<g>
</g>
<g>
</g>
<g>
</g>
<g>
</g>
<g>
</g>
<g>
</g>
<g>
</g>
<g>
</g>
<g>
</g>
<g>
</g>
<g>
</g>
<g>
</g>
<g>
</g>
<g>
</g>
<g>
</g>
</svg>
