<svg height="512" viewBox="0 0 64 64" width="512" xmlns="http://www.w3.org/2000/svg"><g id="Car_Wash-car-cleaning" data-name="Car Wash-car-cleaning"><path d="m50 38a1 1 0 0 0 1-1v-4a1 1 0 0 0 -1-1h-2.1a5.017 5.017 0 0 0 -4.9-4h-22a5.017 5.017 0 0 0 -4.9 4h-2.1a1 1 0 0 0 -1 1v4a1 1 0 0 0 1 1h2v1a3.009 3.009 0 0 0 -3 3v11a1 1 0 0 0 1 1h1v6a2.006 2.006 0 0 0 2 2h5a2.006 2.006 0 0 0 2-2v-6h16v6a2.006 2.006 0 0 0 2 2h5a2.006 2.006 0 0 0 2-2v-6h1a1 1 0 0 0 1-1v-11a3.009 3.009 0 0 0 -3-3v-1zm-2-4h1v2h-1zm-30-1a3.009 3.009 0 0 1 3-3h22a3.009 3.009 0 0 1 3 3v6h-9.61l.33-1h6.28v-2h-7a1.014 1.014 0 0 0 -.95.68l-.77 2.32h-9.89l.33-1h6.28v-2h-7a1.014 1.014 0 0 0 -.95.68l-.77 2.32h-4.28zm-3 3v-2h1v2zm0 9h5v2h-5zm7 15h-5v-6h5zm25 0h-5v-6h5zm2-8h-34v-3h34zm-27-5v-2h20v2zm27 0h-5v-2h5zm0-5v1h-34v-1a1 1 0 0 1 1-1h32a1 1 0 0 1 1 1z"/><path d="m59 14a1 1 0 0 0 1-1v-5h1a1 1 0 0 0 1-1v-4a1 1 0 0 0 -1-1h-58a1 1 0 0 0 -1 1v4a1 1 0 0 0 1 1h1v5a1 1 0 0 0 1 1h1v3h-2a1 1 0 0 0 -1 1v3a1 1 0 0 0 -1 1v32a1 1 0 0 0 1 1v2a1 1 0 0 0 1 1h2v2h-4v2h10v-2h-4v-2h2a1 1 0 0 0 1-1v-2a1 1 0 0 0 1-1v-32a1 1 0 0 0 -1-1v-3a1 1 0 0 0 -1-1h-2v-3h1a1 1 0 0 0 1-1v-5h10v2h-3a3.009 3.009 0 0 0 -3 3v2a1 1 0 0 0 1 1h34a1 1 0 0 0 1-1v-2a3.009 3.009 0 0 0 -3-3h-3v-2h10v5a1 1 0 0 0 1 1h1v3h-2a1 1 0 0 0 -1 1v3a1 1 0 0 0 -1 1v32a1 1 0 0 0 1 1v2a1 1 0 0 0 1 1h2v2h-4v2h10v-2h-4v-2h2a1 1 0 0 0 1-1v-2a1 1 0 0 0 1-1v-32a1 1 0 0 0 -1-1v-3a1 1 0 0 0 -1-1h-2v-3zm-50 42h-4v-1h4zm1-26h-4v2h4v8h-4v2h4v8h-4v2h4v1h-6v-6h4v-2h-4v-8h4v-2h-4v-8h4v-2h-4v-2h6zm-1-11v2h-4v-2zm-1-7h-2v-4h2zm39 0a1 1 0 0 1 1 1v1h-32v-1a1 1 0 0 1 1-1zm-25-2v-2h20v2zm-18-4v-2h56v2zm55 50h-4v-1h4zm1-26h-4v2h4v8h-4v2h4v8h-4v2h4v1h-6v-6h4v-2h-4v-8h4v-2h-4v-8h4v-2h-4v-2h6zm-1-11v2h-4v-2zm-3-7v-4h2v4z"/><path d="m17 18h2v2h-2z"/><path d="m17 22h2v2h-2z"/><path d="m21 18h2v2h-2z"/><path d="m25 18h2v2h-2z"/><path d="m21 22h2v2h-2z"/><path d="m25 22h2v2h-2z"/><path d="m29 18h2v2h-2z"/><path d="m33 18h2v2h-2z"/><path d="m29 22h2v2h-2z"/><path d="m33 22h2v2h-2z"/><path d="m37 18h2v2h-2z"/><path d="m41 18h2v2h-2z"/><path d="m37 22h2v2h-2z"/><path d="m41 22h2v2h-2z"/><path d="m45 18h2v2h-2z"/><path d="m45 22h2v2h-2z"/></g></svg>