<svg id="icons" enable-background="new 0 0 64 64" height="512" viewBox="0 0 64 64" width="512" xmlns="http://www.w3.org/2000/svg"><g><g><path d="m32 31.501c-.553 0-1-.448-1-1v-2.001c0-.552.447-1 1-1s1 .448 1 1v2.001c0 .552-.447 1-1 1z"/></g><g><path d="m54 31.501c-.553 0-1-.448-1-1v-17.002c0-.552.447-1 1-1s1 .448 1 1v17.002c0 .552-.447 1-1 1z"/></g><g><path d="m54 14.499h-7c-.553 0-1-.448-1-1s.447-1 1-1h7c.553 0 1 .448 1 1s-.447 1-1 1z"/></g><g><path d="m10 31.501c-.553 0-1-.448-1-1v-17.002c0-.552.447-1 1-1s1 .448 1 1v17.002c0 .552-.447 1-1 1z"/></g><g><path d="m17 14.499h-7c-.553 0-1-.448-1-1s.447-1 1-1h7c.553 0 1 .448 1 1s-.447 1-1 1z"/></g><g><g><g><path d="m47 47.5c-.553 0-1-.447-1-1v-3.868c0-.553.447-1 1-1s1 .447 1 1v3.868c0 .553-.447 1-1 1z"/></g><g><path d="m61 47.5c-.553 0-1-.447-1-1v-4.501c0-.553.447-1 1-1s1 .447 1 1v4.501c0 .553-.447 1-1 1z"/></g><g><path d="m61 42.999c-.553 0-1-.447-1-1 0-3.584-2.916-6.499-6.501-6.499-3.584 0-6.499 2.915-6.499 6.499 0 .553-.447 1-1 1s-1-.447-1-1c0-4.687 3.813-8.499 8.499-8.499 4.688 0 8.501 3.813 8.501 8.499 0 .553-.447 1-1 1z"/></g><g><path d="m61.001 44.37c-.301 0-.598-.135-.795-.392-1.93-2.522-2.455-2.315-4.414-1.538-1.877.744-4.715 1.87-9.948 1.042-.545-.086-.918-.598-.831-1.144.086-.545.602-.922 1.144-.831 4.69.739 7.123-.224 8.899-.927 2.412-.956 4.026-1.36 6.738 2.181.336.438.253 1.066-.186 1.402-.181.14-.395.207-.607.207z"/></g><g><path d="m56.999 41.976c-.147 0-.298-.033-.44-.103-.495-.243-.699-.843-.456-1.338l2-4.071c.243-.496.839-.7 1.339-.457.495.243.699.843.456 1.338l-2 4.071c-.174.355-.53.56-.899.56z"/></g><g><path d="m45 60.495c-.553 0-1-.447-1-1 0-2.205 1.794-3.999 4-3.999.553 0 1 .447 1 1s-.447 1-1 1c-1.103 0-2 .896-2 1.999 0 .553-.447 1-1 1z"/></g><g><path d="m51 57.502h-3c-.553 0-1-.447-1-1s.447-1 1-1h3c.553 0 1 .447 1 1s-.447 1-1 1z"/></g><g><path d="m45 63.5c-.553 0-1-.447-1-1v-3.005c0-.553.447-1 1-1s1 .447 1 1v3.005c0 .553-.447 1-1 1z"/></g><g><path d="m63 60.495c-.553 0-1-.447-1-1 0-1.103-.897-1.999-2-1.999-.553 0-1-.447-1-1s.447-1 1-1c2.206 0 4 1.794 4 3.999 0 .553-.447 1-1 1z"/></g><g><path d="m60 57.502h-3c-.553 0-1-.447-1-1s.447-1 1-1h3c.553 0 1 .447 1 1s-.447 1-1 1z"/></g><g><path d="m63 63.5c-.553 0-1-.447-1-1v-3.005c0-.553.447-1 1-1s1 .447 1 1v3.005c0 .553-.447 1-1 1z"/></g><g><path d="m51 57.502c-.553 0-1-.447-1-1v-3.684c0-.553.447-1 1-1s1 .447 1 1v3.684c0 .553-.447 1-1 1z"/></g><g><path d="m57 57.495c-.553 0-1-.447-1-1v-3.677c0-.553.447-1 1-1s1 .447 1 1v3.677c0 .553-.447 1-1 1z"/></g><g><path d="m54 54.492c-4.411 0-8-3.588-8-7.997 0-.553.447-1 1-1s1 .447 1 1c0 3.307 2.691 5.997 6 5.997s6-2.69 6-5.997c0-.553.447-1 1-1s1 .447 1 1c0 4.409-3.589 7.997-8 7.997z"/></g><g><path d="m52.001 58.495c-.367 0-.72-.202-.896-.553-.247-.494-.047-1.095.447-1.342l2-1c.493-.245 1.094-.047 1.342.447.247.494.047 1.095-.447 1.342l-2 1c-.143.072-.296.106-.446.106z"/></g><g><path d="m56 58.495c-.256 0-.512-.098-.707-.293-.391-.391-.391-1.023 0-1.414l1-1c.391-.391 1.023-.391 1.414 0s.391 1.023 0 1.414l-1 1c-.195.195-.451.293-.707.293z"/></g><g><path d="m52 58.495c-.256 0-.512-.098-.707-.293l-1-1c-.391-.391-.391-1.023 0-1.414s1.023-.391 1.414 0l1 1c.391.391.391 1.023 0 1.414-.195.195-.451.293-.707.293z"/></g><g><path d="m55.999 58.495c-.15 0-.303-.034-.446-.105l-2-1c-.494-.247-.694-.848-.447-1.342s.849-.692 1.342-.447l2 1c.494.247.694.848.447 1.342-.176.35-.529.552-.896.552z"/></g></g><g><path d="m25 47.5c-.553 0-1-.447-1-1v-5.004c0-.553.447-1 1-1s1 .447 1 1v5.004c0 .553-.447 1-1 1z"/></g><g><path d="m39 47.5c-.553 0-1-.447-1-1v-5.004c0-.553.447-1 1-1s1 .447 1 1v5.004c0 .553-.447 1-1 1z"/></g><g><path d="m23 60.495c-.553 0-1-.447-1-1 0-2.205 1.794-3.999 4-3.999.553 0 1 .447 1 1s-.447 1-1 1c-1.103 0-2 .896-2 1.999 0 .553-.447 1-1 1z"/></g><g><path d="m29 57.502h-3c-.553 0-1-.447-1-1s.447-1 1-1h3c.553 0 1 .447 1 1s-.447 1-1 1z"/></g><g><path d="m23 63.5c-.553 0-1-.447-1-1v-3.005c0-.553.447-1 1-1s1 .447 1 1v3.005c0 .553-.447 1-1 1z"/></g><g><path d="m41 60.495c-.553 0-1-.447-1-1 0-1.103-.897-1.999-2-1.999-.553 0-1-.447-1-1s.447-1 1-1c2.206 0 4 1.794 4 3.999 0 .553-.447 1-1 1z"/></g><g><path d="m38 57.502h-3c-.553 0-1-.447-1-1s.447-1 1-1h3c.553 0 1 .447 1 1s-.447 1-1 1z"/></g><g><path d="m41 63.5c-.553 0-1-.447-1-1v-3.005c0-.553.447-1 1-1s1 .447 1 1v3.005c0 .553-.447 1-1 1z"/></g><g><path d="m29 57.502c-.553 0-1-.447-1-1v-3.684c0-.553.447-1 1-1s1 .447 1 1v3.684c0 .553-.447 1-1 1z"/></g><g><path d="m35 57.495c-.553 0-1-.447-1-1v-3.677c0-.553.447-1 1-1s1 .447 1 1v3.677c0 .553-.447 1-1 1z"/></g><g><path d="m32 54.492c-4.411 0-8-3.588-8-7.997 0-.553.447-1 1-1s1 .447 1 1c0 3.307 2.691 5.997 6 5.997s6-2.69 6-5.997c0-.553.447-1 1-1s1 .447 1 1c0 4.409-3.589 7.997-8 7.997z"/></g><g><path d="m39 42.496c-.553 0-1-.447-1-1 0-3.307-2.691-5.996-6-5.996s-6 2.689-6 5.996c0 .553-.447 1-1 1s-1-.447-1-1c0-4.409 3.589-7.996 8-7.996s8 3.587 8 7.996c0 .553-.447 1-1 1z"/></g><g><path d="m30.001 58.495c-.367 0-.72-.202-.896-.553-.247-.494-.047-1.095.447-1.342l2-1c.494-.245 1.094-.047 1.342.447.247.494.047 1.095-.447 1.342l-2 1c-.143.072-.296.106-.446.106z"/></g><g><path d="m34 58.495c-.256 0-.512-.098-.707-.293-.391-.391-.391-1.023 0-1.414l1-1c.391-.391 1.023-.391 1.414 0s.391 1.023 0 1.414l-1 1c-.195.195-.451.293-.707.293z"/></g><g><path d="m30 58.495c-.256 0-.512-.098-.707-.293l-1-1c-.391-.391-.391-1.023 0-1.414s1.023-.391 1.414 0l1 1c.391.391.391 1.023 0 1.414-.195.195-.451.293-.707.293z"/></g><g><path d="m33.999 58.495c-.15 0-.303-.034-.446-.105l-2-1c-.494-.247-.694-.848-.447-1.342s.848-.692 1.342-.447l2 1c.494.247.694.848.447 1.342-.176.35-.529.552-.896.552z"/></g><g><g><path d="m3 47.5c-.553 0-1-.447-1-1v-8.005c0-.553.447-1 1-1s1 .447 1 1v8.005c0 .553-.447 1-1 1z"/></g><g><path d="m17 47.5c-.553 0-1-.447-1-1v-.294c0-.553.447-1 1-1s1 .447 1 1v.294c0 .553-.447 1-1 1z"/></g><g><path d="m1 60.495c-.553 0-1-.447-1-1 0-2.205 1.794-3.999 4-3.999.553 0 1 .447 1 1s-.447 1-1 1c-1.103 0-2 .896-2 1.999 0 .553-.447 1-1 1z"/></g><g><path d="m7 57.502h-3c-.553 0-1-.447-1-1s.447-1 1-1h3c.553 0 1 .447 1 1s-.447 1-1 1z"/></g><g><path d="m1 63.5c-.553 0-1-.447-1-1v-3.005c0-.553.447-1 1-1s1 .447 1 1v3.005c0 .553-.447 1-1 1z"/></g><g><path d="m19 60.495c-.553 0-1-.447-1-1 0-1.103-.897-1.999-2-1.999-.553 0-1-.447-1-1s.447-1 1-1c2.206 0 4 1.794 4 3.999 0 .553-.447 1-1 1z"/></g><g><path d="m16 57.502h-3c-.553 0-1-.447-1-1s.447-1 1-1h3c.553 0 1 .447 1 1s-.447 1-1 1z"/></g><g><path d="m19 63.5c-.553 0-1-.447-1-1v-3.005c0-.553.447-1 1-1s1 .447 1 1v3.005c0 .553-.447 1-1 1z"/></g><g><path d="m7 57.502c-.553 0-1-.447-1-1v-3.684c0-.553.447-1 1-1s1 .447 1 1v3.684c0 .553-.447 1-1 1z"/></g><g><path d="m13 57.495c-.553 0-1-.447-1-1v-3.677c0-.553.447-1 1-1s1 .447 1 1v3.677c0 .553-.447 1-1 1z"/></g><g><path d="m10 54.492c-4.411 0-8-3.588-8-7.997 0-.553.447-1 1-1s1 .447 1 1c0 3.307 2.691 5.997 6 5.997s6-2.69 6-5.997c0-.553.447-1 1-1s1 .447 1 1c0 4.409-3.589 7.997-8 7.997z"/></g><g><path d="m9.999 59.495c-.19 0-.383-.055-.554-.168l-3-2c-.46-.307-.584-.927-.277-1.387.306-.46.925-.583 1.387-.277l3 2c.46.307.584.927.277 1.387-.192.289-.51.445-.833.445z"/></g><g><path d="m10.001 59.495c-.323 0-.641-.156-.833-.445-.307-.46-.183-1.08.277-1.387l3-2c.46-.306 1.081-.183 1.387.277.307.46.183 1.08-.277 1.387l-3 2c-.171.113-.364.168-.554.168z"/></g><g><path d="m19 42.495c-.553 0-1-.447-1-1 0-3.86-3.141-7.001-7-7.001-1.779 0-3.361.969-4.374 1.781-.432.346-1.061.276-1.406-.154-.346-.432-.276-1.061.154-1.406 1.813-1.453 3.758-2.221 5.626-2.221 4.963 0 9 4.038 9 9.001 0 .553-.447 1-1 1z"/></g><g><path d="m19 52.495c-.553 0-1-.447-1-1 0-3.859-3.141-7-7-7-.553 0-1-.447-1-1s.447-1 1-1c4.963 0 9 4.037 9 9 0 .553-.447 1-1 1z"/></g><g><path d="m3 44.495c-.553 0-1-.447-1-1s.447-1 1-1c1.103 0 2-.897 2-2 0-.553.447-1 1-1s1 .447 1 1c0 2.206-1.794 4-4 4z"/></g><g><path d="m3 39.495c-.553 0-1-.447-1-1 0-2.206 1.794-4 4-4 .553 0 1 .447 1 1s-.447 1-1 1c-1.103 0-2 .897-2 2 0 .553-.447 1-1 1z"/></g><g><path d="m9 44.495c-2.206 0-4-1.794-4-4 0-.553.447-1 1-1s1 .447 1 1c0 1.103.897 2 2 2 .553 0 1 .447 1 1s-.447 1-1 1z"/></g><g><path d="m6 41.495c-.553 0-1-.447-1-1v-5c0-.553.447-1 1-1s1 .447 1 1v5c0 .553-.447 1-1 1z"/></g><g><path d="m19 52.495c-.553 0-1-.447-1-1v-10c0-.553.447-1 1-1s1 .447 1 1v10c0 .553-.447 1-1 1z"/></g><g><path d="m11 44.495h-2c-.553 0-1-.447-1-1s.447-1 1-1h2c.553 0 1 .447 1 1s-.447 1-1 1z"/></g></g><g><path d="m31.937 43.515c-2.901 0-5.257-1.07-5.355-1.116-.501-.231-.719-.823-.489-1.325.229-.5.823-.721 1.325-.492.021.01 2.073.934 4.52.934 2.464 0 4.646-.924 4.668-.933.51-.221 1.095.017 1.313.522.218.507-.015 1.095-.521 1.313-.105.045-2.571 1.097-5.461 1.097z"/></g><g><g><path d="m39 44.5c-.254 0-.509-.097-.704-.289l-2-1.98c-.392-.389-.396-1.022-.007-1.415.39-.392 1.021-.395 1.415-.007l2 1.98c.392.389.396 1.022.007 1.415-.196.197-.453.296-.711.296z"/></g><g><path d="m25 44.52c-.255 0-.511-.097-.705-.291-.392-.39-.394-1.022-.004-1.414l2-2.01c.39-.391 1.024-.394 1.414-.004.392.39.394 1.022.004 1.414l-2 2.01c-.195.196-.452.295-.709.295z"/></g></g></g><g><path d="m46 43.495c-.553 0-1-.447-1-1v-.496c0-.553.447-1 1-1s1 .447 1 1v.496c0 .553-.447 1-1 1z"/></g><g><g><path d="m32 26.5c-7.168 0-13-5.832-13-13s5.832-13 13-13 13 5.832 13 13-5.832 13-13 13zm0-24c-6.065 0-11 4.935-11 11s4.935 11 11 11 11-4.935 11-11-4.935-11-11-11z"/></g><g><path d="m32 23.5c-5.514 0-10-4.486-10-10s4.486-10 10-10 10 4.486 10 10-4.486 10-10 10zm0-18c-4.411 0-8 3.589-8 8s3.589 8 8 8 8-3.589 8-8-3.589-8-8-8z"/></g><g><path d="m32 16.5c-1.654 0-3-1.346-3-3s1.346-3 3-3 3 1.346 3 3-1.346 3-3 3zm0-4c-.552 0-1 .449-1 1s.448 1 1 1 1-.449 1-1-.448-1-1-1z"/></g><g><path d="m39.484 9.501h-14.968c-.553 0-1-.448-1-1s.447-1 1-1h14.969c.553 0 1 .448 1 1s-.448 1-1.001 1z"/></g><g><path d="m34.006 23.276c-.01 0-.019 0-.028 0-.552-.015-.987-.475-.973-1.027.122-4.44 3.401-8.086 7.798-8.669.556-.071 1.051.312 1.123.86.072.547-.313 1.05-.859 1.123-3.418.453-5.968 3.288-6.062 6.741-.016.543-.46.972-.999.972z"/></g><g><path d="m29.994 23.276c-.539 0-.983-.43-.999-.973-.094-3.453-2.644-6.288-6.062-6.741-.547-.072-.932-.575-.859-1.123.072-.548.571-.931 1.123-.86 4.396.583 7.676 4.229 7.798 8.669.015.552-.421 1.012-.973 1.027-.009.001-.018.001-.028.001z"/></g></g></g></svg>