<svg id="icons" enable-background="new 0 0 64 64" height="512" viewBox="0 0 64 64" width="512" xmlns="http://www.w3.org/2000/svg"><g><g><g><g><path d="m51.504 61.998c-.553 0-1-.447-1-1v-17.986c0-.553.447-1 1-1s1 .447 1 1v17.986c0 .553-.447 1-1 1z"/></g><g><path d="m49.504 63.998c-.553 0-1-.447-1-1s.447-1 1-1 1.002-.448 1.002-1c0-.553.447-1 1-1s1 .447 1 1c0 1.654-1.347 3-3.002 3z"/></g><g><path d="m51.504 44.012c-.553-.001-1-.448-1-1.001.001-.802-.311-1.555-.877-2.121s-1.32-.878-2.123-.878c-.553 0-1-.447-1-1s.447-1 1-1c1.337 0 2.593.52 3.537 1.464s1.464 2.2 1.463 3.537c0 .551-.448.999-1 .999z"/></g></g><g><g><path d="m39.506 61.998c-.553 0-1-.447-1-1v-17.986c0-.553.447-1 1-1s1 .447 1 1v17.986c0 .553-.447 1-1 1z"/></g><g><path d="m41.506 63.998c-1.654 0-3-1.346-3-3 0-.553.447-1 1-1s1 .447 1 1c0 .552.448 1 1 1 .553 0 1 .447 1 1s-.447 1-1 1z"/></g><g><path d="m39.506 44.012c-.553 0-1-.447-1-1 0-2.757 2.244-5 5.002-5 .553 0 1 .447 1 1s-.447 1-1 1c-1.655 0-3.002 1.346-3.002 3 0 .552-.447 1-1 1z"/></g></g><g><path d="m49.504 63.998h-7.998c-.553 0-1-.447-1-1s.447-1 1-1h7.998c.553 0 1 .447 1 1s-.447 1-1 1z"/></g><g><path d="m48.504 60h-5.996c-.552 0-1-.447-1-1l-.002-9.99c0-.552.447-1 1-1l6-.002c.266 0 .52.105.707.293s.293.442.293.707l-.002 9.992c0 .553-.448 1-1 1zm-4.996-2h3.996l.002-7.992-4 .002z"/></g><g><path d="m42.506 50.01c-.419 0-.809-.265-.948-.684l-1-3c-.175-.524.108-1.091.632-1.265.529-.177 1.091.108 1.265.632l1 3c.175.524-.108 1.091-.632 1.265-.106.035-.213.052-.317.052z"/></g><g><path d="m48.506 50.008c-.104 0-.211-.017-.316-.052-.523-.175-.807-.741-.632-1.265l1-2.998c.175-.523.736-.809 1.265-.632.523.175.807.741.632 1.265l-1 2.998c-.141.419-.53.684-.949.684z"/></g><g><path d="m49.507 47.01c-.011 0-.021 0-.032-.001-.396-.012-.731-.253-.883-.593-.204-.109-.956-.406-3.086-.406s-2.882.297-3.086.406c-.151.34-.486.581-.883.593-.555.057-1.013-.415-1.03-.968-.006-.16.025-.577.42-.984.692-.714 2.147-1.047 4.579-1.047s3.887.333 4.579 1.047c.395.407.426.824.42.984-.017.541-.461.969-.998.969z"/></g><g><path d="m47.504 40.012h-3.996c-.553 0-1-.447-1-1s.447-1 1-1h3.996c.553 0 1 .447 1 1s-.447 1-1 1z"/></g><g><path d="m39.506 50.01h-1c-.553 0-1-.447-1-1s.447-1 1-1h1c.553 0 1 .447 1 1s-.447 1-1 1z"/></g><g><path d="m52.506 50.01h-1c-.553 0-1-.447-1-1s.447-1 1-1h1c.553 0 1 .447 1 1s-.447 1-1 1z"/></g><g><path d="m50.802 63.443c-.323 0-.641-.156-.833-.445l-2.297-3.443c-.307-.459-.183-1.08.277-1.387.458-.306 1.081-.183 1.387.277l2.297 3.443c.307.459.183 1.08-.277 1.387-.17.114-.364.168-.554.168z"/></g><g><path d="m40.208 63.443c-.19 0-.384-.055-.554-.168-.46-.307-.584-.928-.277-1.387l2.297-3.441c.308-.459.928-.584 1.387-.277.46.307.584.928.277 1.387l-2.297 3.441c-.193.289-.51.445-.833.445z"/></g></g><g><path d="m43.512 27.994c-1.654 0-3-1.346-3-3s1.346-3 3-3 3 1.346 3 3-1.346 3-3 3zm0-4c-.552 0-1 .448-1 1s.448 1 1 1 1-.448 1-1-.449-1-1-1z"/></g><g><path d="m43.516 34.006c-4.969 0-9.012-4.042-9.012-9.01 0-4.969 4.043-9.012 9.012-9.012.553 0 1 .447 1 1s-.447 1-1 1c-3.866 0-7.012 3.146-7.012 7.012 0 3.865 3.146 7.01 7.012 7.01.553 0 1 .447 1 1s-.448 1-1 1z"/></g><g><path d="m43.512 12c-1.654 0-3-1.346-3-3s1.346-3 3-3 3 1.346 3 3-1.346 3-3 3zm0-4c-.552 0-1 .448-1 1s.448 1 1 1 1-.448 1-1-.449-1-1-1z"/></g><g><path d="m43.51 17.992c-.553 0-1-.447-1-1s.447-1 1-1c3.856 0 6.994-3.138 6.994-6.994 0-3.857-3.138-6.996-6.994-6.996-.553 0-1-.447-1-1s.447-1 1-1c4.959 0 8.994 4.035 8.994 8.996 0 4.959-4.035 8.994-8.994 8.994z"/></g><g><path d="m19.502 12.016c-1.654 0-3-1.346-3-3s1.346-3 3-3 3 1.346 3 3-1.346 3-3 3zm0-4c-.552 0-1 .448-1 1s.448 1 1 1 1-.448 1-1-.448-1-1-1z"/></g><g><path d="m19.506 50.006c-4.969 0-9.012-4.042-9.012-9.01 0-4.969 4.043-9.012 9.012-9.012.553 0 1 .447 1 1s-.447 1-1 1c-3.866 0-7.012 3.146-7.012 7.012 0 3.865 3.146 7.01 7.012 7.01.553 0 1 .447 1 1s-.447 1-1 1z"/></g><g><path d="m19.502 43.998c-1.654 0-3-1.346-3-3s1.346-3 3-3 3 1.346 3 3-1.346 3-3 3zm0-4c-.552 0-1 .448-1 1s.448 1 1 1 1-.448 1-1-.448-1-1-1z"/></g><g><path d="m19.506 18.023c-4.969 0-9.012-4.042-9.012-9.01 0-4.969 4.043-9.012 9.012-9.012.553 0 1 .447 1 1s-.447 1-1 1c-3.866 0-7.012 3.146-7.012 7.012 0 3.865 3.146 7.01 7.012 7.01.553 0 1 .447 1 1s-.447 1-1 1z"/></g><g><path d="m19.502 28.01c-1.654 0-3-1.346-3-3s1.346-3 3-3 3 1.346 3 3-1.346 3-3 3zm0-4c-.552 0-1 .448-1 1s.448 1 1 1 1-.448 1-1-.448-1-1-1z"/></g><g><path d="m19.5 33.992c-.553 0-1-.447-1-1s.447-1 1-1c3.856 0 6.994-3.138 6.994-6.994 0-3.857-3.138-6.996-6.994-6.996-.553 0-1-.447-1-1s.447-1 1-1c4.959 0 8.994 4.035 8.994 8.996 0 4.959-4.035 8.994-8.994 8.994z"/></g><g><path d="m45.51 35.998c-.553 0-1-.447-1-1 0-.548-.446-.994-.994-.994-.553 0-1-.447-1-1s.447-1 1-1c1.651 0 2.994 1.343 2.994 2.994 0 .553-.447 1-1 1z"/></g><g><path d="m21.49 51.992c-.553 0-1-.447-1-1 0-.548-.446-.994-.994-.994-.553 0-1-.447-1-1s.447-1 1-1c1.651 0 2.994 1.343 2.994 2.994 0 .553-.447 1-1 1z"/></g><g><path d="m43.516 2.002h-24.004c-.553 0-1-.447-1-1s.447-1 1-1h24.004c.553 0 1 .447 1 1s-.448 1-1 1z"/></g><g><path d="m21.49 63.998c-.553 0-1-.447-1-1v-12.006c0-.553.447-1 1-1s1 .447 1 1v12.006c0 .553-.447 1-1 1z"/></g><g><path d="m21.49 63.998c-.256 0-.512-.098-.707-.293-.391-.391-.391-1.023 0-1.414l2.002-2.002c.391-.391 1.023-.391 1.414 0s.391 1.023 0 1.414l-2.002 2.002c-.195.195-.451.293-.707.293z"/></g><g><path d="m21.49 63.998c-.256 0-.512-.098-.707-.293l-1.992-1.992c-.391-.391-.391-1.023 0-1.414s1.023-.391 1.414 0l1.992 1.992c.391.391.391 1.023 0 1.414-.195.195-.451.293-.707.293z"/></g></g></svg>