<svg id="_x33_0" enable-background="new 0 0 64 64" height="512" viewBox="0 0 64 64" width="512" xmlns="http://www.w3.org/2000/svg"><g><path d="m14 53c-1.654 0-3 1.346-3 3s1.346 3 3 3 3-1.346 3-3-1.346-3-3-3zm0 4c-.551 0-1-.448-1-1s.449-1 1-1 1 .448 1 1-.449 1-1 1z"/><path d="m15 7c-2.206 0-4 1.794-4 4s1.794 4 4 4 4-1.794 4-4-1.794-4-4-4zm0 6c-1.103 0-2-.897-2-2s.897-2 2-2 2 .897 2 2-.897 2-2 2z"/><path d="m42.352 11.284 1.396 1.432c2.345-2.287 6.158-2.287 8.503 0l1.396-1.432c-3.113-3.039-8.181-3.039-11.295 0z"/><path d="m48 53c-1.654 0-3 1.346-3 3s1.346 3 3 3 3-1.346 3-3-1.346-3-3-3zm0 4c-.551 0-1-.448-1-1s.449-1 1-1 1 .448 1 1-.449 1-1 1z"/><path d="m59.691 32.125c-3.244-4.462-8.475-7.125-13.992-7.125h-1.728c1.373-1.821 2.342-3.957 2.77-6.286.384.179.808.286 1.259.286 1.654 0 3-1.346 3-3s-1.346-3-3-3c-1.302 0-2.402.839-2.816 2h-6.223c-.102-2.287-.536-4.286-1.143-6h2.182l.671.741c4.042-3.658 10.616-3.658 14.658 0l1.342-1.482c-3.664-3.317-9.084-4.082-13.571-2.316-2.845-3.139-6.842-4.943-11.1-4.943-4.203 0-8.12 1.735-10.953 4.777-1.469-1.697-3.632-2.777-6.047-2.777-4.411 0-8 3.589-8 8 0 5.336 6.154 12 8 12 .615 0 1.71-.75 2.894-1.933.567 1.569 1.387 3.01 2.41 4.28-2.978.741-5.528 2.675-7.016 5.439l-3.749 6.963c-.134.247-.366.428-.639.496l-4.113 1.028c-2.23.557-3.787 2.551-3.787 4.85v7.877c0 2.757 2.243 5 5 5h1.08c.488 3.386 3.401 6 6.92 6s6.432-2.614 6.92-6h20.16c.488 3.386 3.401 6 6.92 6s6.432-2.614 6.92-6h6.08c1.103 0 2-.897 2-2v-12.699c0-3.681-1.144-7.199-3.309-10.176zm-37.631-17.125c.574-1.336.94-2.707.94-4 0-.692-.097-1.359-.263-2h3.446c-.607 1.714-1.041 3.713-1.143 6zm20.877 8h-5.119c.607-1.714 1.041-3.713 1.143-6h5.988c-.168 2.198-.883 4.242-2.012 6zm-7.268 0h-7.348c-.668-1.664-1.166-3.67-1.282-6h9.921c-.117 2.327-.619 4.333-1.291 6zm-.952 2c-.991 1.781-2.065 2.995-2.719 3.646-.657-.65-1.735-1.861-2.726-3.646zm-5.355 3.714c-2.575-.543-4.905-1.858-6.703-3.714h4.348c.752 1.553 1.601 2.787 2.355 3.714zm7.631-3.714h4.366c-1.789 1.859-4.117 3.196-6.738 3.734.758-.929 1.615-2.169 2.372-3.734zm11.007-10c.551 0 1 .448 1 1s-.449 1-1 1-1-.448-1-1 .449-1 1-1zm-11.039 0h-9.921c.117-2.327.619-4.333 1.292-6h7.347c.668 1.664 1.165 3.67 1.282 6zm-4.958-11.646c.657.65 1.735 1.861 2.726 3.646h-5.445c.99-1.78 2.065-2.994 2.719-3.646zm9.221 3.502c-.073.045-.143.098-.216.144h-4.015c-.754-1.558-1.606-2.795-2.362-3.722 2.495.513 4.782 1.749 6.593 3.578zm-11.857-3.576c-.755.927-1.607 2.163-2.36 3.72h-4.377c1.833-1.913 4.172-3.195 6.737-3.72zm-14.367 17.651c-1.323-.821-6-5.776-6-9.931 0-3.309 2.691-6 6-6s6 2.691 6 6c0 4.155-4.677 9.11-6 9.931zm6.036-3.931h4.003c.102 2.287.536 4.286 1.143 6h-5.123c-.722-1.117-1.269-2.357-1.62-3.682.563-.714 1.108-1.493 1.597-2.318zm-15.764 24.212 4.112-1.027c.817-.203 1.515-.745 1.915-1.488l3.75-6.964c1.404-2.607 3.961-4.317 6.884-4.657 2.698 2.444 6.258 3.924 10.067 3.924 3.923 0 7.488-1.526 10.164-4h3.536c4.879 0 9.505 2.355 12.375 6.301 1.915 2.633 2.926 5.744 2.926 9v.699h-1c-1.654 0-3 1.346-3 3v3.94c-1.409-2.208-3.533-3.801-6-4.514v-9.426c0-1.654-1.346-3-3-3s-3 1.346-3 3v9h-5c-1.654 0-3 1.346-3 3v3h-2v-15c0-1.654-1.346-3-3-3s-3 1.346-3 3v9h-5c-1.533 0-2.786 1.16-2.964 2.646-.594-.52-1.244-.962-1.935-1.337l2.574-4.254.666.444c.493.327 1.067.501 1.658.501 1.005 0 1.939-.5 2.498-1.338.915-1.375.542-3.24-.833-4.158l-6-4c-.496-.33-1.07-.504-1.664-.504-1.007 0-1.94.5-2.498 1.338-.915 1.375-.542 3.24.833 4.158l.456.304-3.789 6.262c-2.238.208-4.329 1.105-6.003 2.556v-1.618c0-1.654-1.346-3-3-3h-.774c.352-.869 1.093-1.549 2.046-1.788zm55.728 3.788v6h-2v-5c0-.552.449-1 1-1zm-12 .069c-.332-.03-.662-.069-1-.069s-.668.039-1 .069v-9.069c0-.552.449-1 1-1s1 .448 1 1zm-7.206 1.931c-1.097.783-2.047 1.769-2.794 2.94v-1.94c0-.552.449-1 1-1zm-8.794 4h-9.382l-.041-.081c-.172-.343-.375-.661-.578-.979v-1.94c0-.552.449-1 1-1h7v-11c0-.552.449-1 1-1s1 .448 1 1v15zm-15.553-14.168c-.458-.306-.583-.928-.278-1.387.185-.278.497-.445.832-.445.197 0 .389.059.554.168l6 4c.458.306.583.928.278 1.386-.296.442-.942.572-1.386.279zm2.562 4.112-2.764 4.569c-.622-.196-1.262-.341-1.921-.422l3.135-5.181zm-16.009 4.056c.551 0 1 .448 1 1v3.764c0 .381-.212.724-.553.895l-1.447.723v-6.382zm10 16c-2.757 0-5-2.243-5-5s2.243-5 5-5 5 2.243 5 5-2.243 5-5 5zm34 0c-2.757 0-5-2.243-5-5s2.243-5 5-5 5 2.243 5 5-2.243 5-5 5zm6.92-6c-.488-3.386-3.401-6-6.92-6s-6.432 2.614-6.92 6h-20.16c-.488-3.386-3.401-6-6.92-6s-6.432 2.614-6.92 6h-1.08c-1.134 0-2.112-.64-2.621-1.571l1.963-.982c.696-.348 1.206-.939 1.465-1.639 1.623-2.384 4.303-3.808 7.193-3.808 3.32 0 6.304 1.845 7.789 4.813l.593 1.187h17.236l.593-1.187c1.485-2.968 4.469-4.813 7.789-4.813s6.304 1.845 7.789 4.813l.593 1.187h4.618v2z"/></g></svg>