<svg id="icons" enable-background="new 0 0 64 64" height="512" viewBox="0 0 64 64" width="512" xmlns="http://www.w3.org/2000/svg"><g><g><path d="m4.005 31.494c-.553 0-1-.447-1-1 0-3.309 2.691-6 6-6 .553 0 1 .447 1 1s-.447 1-1 1c-2.206 0-4 1.794-4 4 0 .553-.447 1-1 1z"/></g><g><path d="m7.005 31.494c-.553 0-1-.447-1-1 0-1.654 1.346-3 3-3 .553 0 1 .447 1 1s-.447 1-1 1c-.552 0-1 .448-1 1 0 .553-.447 1-1 1z"/></g><g><path d="m4.005 58.51c-.553 0-1-.447-1-1v-27.016c0-.553.447-1 1-1s1 .447 1 1v27.016c0 .553-.447 1-1 1z"/></g><g><path d="m7.005 58.51c-.553 0-1-.447-1-1v-27.016c0-.553.447-1 1-1s1 .447 1 1v27.016c0 .553-.447 1-1 1z"/></g><g><path d="m59.997 31.494c-.553 0-1-.447-1-1 0-2.206-1.794-4-4-4-.553 0-1-.447-1-1s.447-1 1-1c3.309 0 6 2.691 6 6 0 .553-.447 1-1 1z"/></g><g><path d="m56.997 31.494c-.553 0-1-.447-1-1 0-.552-.448-1-1-1-.553 0-1-.447-1-1s.447-1 1-1c1.654 0 3 1.346 3 3 0 .553-.447 1-1 1z"/></g><g><path d="m59.997 58.51c-.553 0-1-.447-1-1v-27.016c0-.553.447-1 1-1s1 .447 1 1v27.016c0 .553-.447 1-1 1z"/></g><g><path d="m56.997 58.51c-.553 0-1-.447-1-1v-27.016c0-.553.447-1 1-1s1 .447 1 1v27.016c0 .553-.447 1-1 1z"/></g><g><path d="m54.997 26.494h-45.992c-.553 0-1-.447-1-1s.447-1 1-1h45.992c.553 0 1 .447 1 1s-.447 1-1 1z"/></g><g><path d="m9.005 29.496c-.553 0-1-.447-1-1s.447-1 1-1l45.992-.002c.553 0 1 .447 1 1s-.447 1-1 1z"/></g><g><path d="m59.997 58.51h-55.992c-.553 0-1-.447-1-1s.447-1 1-1h55.992c.553 0 1 .447 1 1s-.447 1-1 1z"/></g><g><path d="m63.002 62.508c-.304 0-.604-.138-.801-.399l-3.004-3.998c-.331-.441-.242-1.068.199-1.4.441-.33 1.067-.241 1.4.199l3.004 3.998c.331.441.242 1.068-.199 1.4-.179.134-.39.2-.599.2z"/></g><g><path d="m.998 62.508c-.209 0-.42-.065-.6-.2-.441-.332-.53-.959-.199-1.4l3.004-3.998c.333-.441.96-.529 1.4-.199.441.332.53.959.199 1.4l-3.004 3.998c-.196.261-.496.399-.8.399z"/></g><g><g><path d="m13.001 44.496c-.553 0-1-.447-1-1v-2.867c0-.553.447-1 1-1s1 .447 1 1v2.867c0 .553-.447 1-1 1z"/></g><g><path d="m27.001 44.496c-.553 0-1-.447-1-1v-3.5c0-.553.447-1 1-1s1 .447 1 1v3.5c0 .553-.447 1-1 1z"/></g><g><path d="m27.001 40.996c-.553 0-1-.447-1-1 0-3.584-2.916-6.5-6.5-6.5s-6.5 2.916-6.5 6.5c0 .553-.447 1-1 1s-1-.447-1-1c0-4.687 3.813-8.5 8.5-8.5s8.5 3.813 8.5 8.5c0 .553-.447 1-1 1z"/></g><g><path d="m27.002 42.367c-.301 0-.598-.135-.795-.392-1.931-2.523-2.456-2.313-4.414-1.538-1.879.743-4.715 1.871-9.948 1.042-.545-.086-.918-.598-.831-1.144.085-.545.599-.923 1.144-.831 4.692.742 7.123-.223 8.899-.927 2.408-.955 4.024-1.363 6.738 2.181.336.438.253 1.066-.186 1.402-.181.14-.395.207-.607.207z"/></g><g><path d="m23 39.973c-.147 0-.298-.033-.439-.103-.496-.243-.7-.843-.457-1.338l2-4.072c.243-.497.841-.7 1.338-.457.496.243.7.843.457 1.338l-2 4.072c-.174.355-.53.56-.899.56z"/></g><g><path d="m11 56.492c-.553 0-1-.447-1-1 0-2.206 1.794-4 4-4 .553 0 1 .447 1 1s-.447 1-1 1c-1.103 0-2 .897-2 2 0 .553-.447 1-1 1z"/></g><g><path d="m17.001 53.498h-3.001c-.553 0-1-.447-1-1s.447-1 1-1h3.001c.553 0 1 .447 1 1s-.447 1-1 1z"/></g><g><path d="m11 58.494c-.553 0-1-.447-1-1v-2.002c0-.553.447-1 1-1s1 .447 1 1v2.002c0 .553-.447 1-1 1z"/></g><g><path d="m29.002 56.492c-.553 0-1-.447-1-1 0-1.103-.897-2-2-2-.553 0-1-.447-1-1s.447-1 1-1c2.206 0 4 1.794 4 4 0 .553-.447 1-1 1z"/></g><g><path d="m26.002 53.498h-3.001c-.553 0-1-.447-1-1s.447-1 1-1h3.001c.553 0 1 .447 1 1s-.447 1-1 1z"/></g><g><path d="m29.002 58.494c-.553 0-1-.447-1-1v-2.002c0-.553.447-1 1-1s1 .447 1 1v2.002c0 .553-.447 1-1 1z"/></g><g><path d="m17.001 53.498c-.553 0-1-.447-1-1v-2.684c0-.553.447-1 1-1s1 .447 1 1v2.684c0 .553-.447 1-1 1z"/></g><g><path d="m23.001 53.492c-.553 0-1-.447-1-1v-2.678c0-.553.447-1 1-1s1 .447 1 1v2.678c0 .553-.447 1-1 1z"/></g><g><path d="m20.001 51.488c-4.411 0-8-3.587-8-7.996 0-.553.447-1 1-1s1 .447 1 1c0 3.307 2.691 5.996 6 5.996s6-2.689 6-5.996c0-.553.447-1 1-1s1 .447 1 1c0 4.409-3.589 7.996-8 7.996z"/></g><g><path d="m18.002 54.496c-.367 0-.72-.202-.896-.553-.247-.494-.047-1.095.447-1.342l2-1c.493-.245 1.094-.047 1.342.447.247.494.047 1.095-.447 1.342l-2 1c-.143.072-.296.106-.446.106z"/></g><g><path d="m22.001 54.496c-.255 0-.511-.097-.706-.292-.391-.39-.393-1.022-.002-1.414l1-1.004c.39-.389 1.022-.394 1.414-.002.391.39.393 1.022.002 1.414l-1 1.004c-.195.195-.451.294-.708.294z"/></g><g><path d="m18.001 54.496c-.257 0-.513-.098-.708-.294l-1-1.004c-.391-.392-.389-1.024.002-1.414.392-.393 1.024-.39 1.414.002l1 1.004c.391.392.389 1.024-.002 1.414-.195.195-.451.292-.706.292z"/></g><g><path d="m22 54.496c-.15 0-.303-.034-.446-.105l-2-1c-.494-.247-.694-.848-.447-1.342.248-.494.848-.692 1.342-.447l2 1c.494.247.694.848.447 1.342-.176.35-.529.552-.896.552z"/></g></g><g><g><path d="m34.999 56.504c-.553 0-1-.447-1-1 0-2.206 1.794-4 4-4 .553 0 1 .447 1 1s-.447 1-1 1c-1.103 0-2 .897-2 2 0 .553-.447 1-1 1z"/></g><g><path d="m41 53.51h-3.001c-.553 0-1-.447-1-1s.447-1 1-1h3.001c.553 0 1 .447 1 1s-.447 1-1 1z"/></g><g><path d="m34.999 58.506c-.553 0-1-.447-1-1v-2.002c0-.553.447-1 1-1s1 .447 1 1v2.002c0 .553-.447 1-1 1z"/></g><g><path d="m53.001 56.504c-.553 0-1-.447-1-1 0-1.103-.897-2-2-2-.553 0-1-.447-1-1s.447-1 1-1c2.206 0 4 1.794 4 4 0 .553-.447 1-1 1z"/></g><g><path d="m50.001 53.51h-3.001c-.553 0-1-.447-1-1s.447-1 1-1h3.001c.553 0 1 .447 1 1s-.447 1-1 1z"/></g><g><path d="m53.001 58.506c-.553 0-1-.447-1-1v-2.002c0-.553.447-1 1-1s1 .447 1 1v2.002c0 .553-.447 1-1 1z"/></g><g><path d="m41 53.51c-.553 0-1-.447-1-1v-2.684c0-.553.447-1 1-1s1 .447 1 1v2.684c0 .553-.447 1-1 1z"/></g><g><path d="m47 53.504c-.553 0-1-.447-1-1v-2.678c0-.553.447-1 1-1s1 .447 1 1v2.678c0 .553-.447 1-1 1z"/></g><g><path d="m44.389 41.598c-2.878 0-5.649-1.116-5.767-1.164-.511-.208-.756-.791-.548-1.302.207-.513.79-.758 1.303-.551.024.011 2.535 1.017 5.012 1.017 2.39 0 4.096-.957 4.112-.967.48-.271 1.09-.108 1.364.369s.113 1.087-.363 1.363c-.087.05-2.161 1.235-5.113 1.235z"/></g><g><g><path d="m44 51.508c-4.411 0-8-3.589-8-8 0-.553.447-1 1-1s1 .447 1 1c0 3.309 2.691 6 6 6s6-2.691 6-6c0-.553.447-1 1-1s1 .447 1 1c0 4.411-3.589 8-8 8z"/></g><g><path d="m37 44.508c-.553 0-1-.447-1-1v-5c0-.553.447-1 1-1s1 .447 1 1v5c0 .553-.447 1-1 1z"/></g><g><path d="m51 44.508c-.553 0-1-.448-1-1l.002-5c0-.553.448-1 1-1 .553 0 1 .448 1 1l-.002 5c0 .553-.448 1-1 1z"/></g></g><g><g><path d="m51.002 39.508c-.553 0-1-.447-1-1 0-1.103-.898-2-2.002-2-.553 0-1-.447-1-1s.447-1 1-1c2.207 0 4.002 1.794 4.002 4 0 .553-.447 1-1 1z"/></g><g><path d="m48 36.508c-.553 0-1-.447-1-1v-3c0-.553.447-1 1-1s1 .447 1 1v3c0 .553-.447 1-1 1z"/></g><g><path d="m37 39.508c-.553 0-1-.447-1-1 0-3.859 3.141-7 7-7 .553 0 1 .447 1 1s-.447 1-1 1c-2.757 0-5 2.243-5 5 0 .553-.447 1-1 1z"/></g><g><g><path d="m51 42.416c-.247 0-.495-.091-.688-.274l-2-1.898c-.4-.381-.417-1.014-.037-1.414.382-.4 1.014-.417 1.414-.037l2 1.898c.4.381.417 1.014.037 1.414-.198.207-.461.311-.726.311z"/></g><g><path d="m37 42.416c-.266 0-.53-.105-.727-.313-.38-.401-.361-1.034.04-1.414l2-1.889c.402-.378 1.035-.359 1.413.041.38.401.361 1.034-.04 1.414l-2 1.889c-.193.181-.44.272-.686.272z"/></g></g></g><g><path d="m48 33.508h-5c-.553 0-1-.447-1-1s.447-1 1-1h5c.553 0 1 .447 1 1s-.447 1-1 1z"/></g></g><g><path d="m49.207 58.516c-.347 0-.683-.18-.868-.502-.891-1.549-2.553-2.512-4.338-2.512-1.779 0-3.439.958-4.332 2.501-.275.477-.887.643-1.366.364-.478-.276-.642-.888-.364-1.366 1.248-2.158 3.571-3.499 6.063-3.499 2.499 0 4.825 1.347 6.072 3.516.275.479.11 1.09-.369 1.365-.157.09-.329.133-.498.133z"/></g><g><path d="m44.001 55.502c-2.243 0-4.001-1.315-4.001-2.994 0-.553.447-1 1-1s1 .447 1 1c0 .396.798.994 2.001.994 1.202 0 2-.599 2-.994 0-.553.447-1 1-1s1 .447 1 1c0 1.679-1.757 2.994-4 2.994z"/></g><g><g><path d="m32.001 21.5c-6.386 0-12.097-3.669-14.903-9.574-.129-.272-.129-.587 0-.859 2.807-5.905 8.518-9.574 14.903-9.574s12.097 3.669 14.903 9.574c.129.272.129.587 0 .859-2.806 5.905-8.517 9.574-14.903 9.574zm-12.885-10.004c2.539 4.95 7.435 8.004 12.885 8.004s10.346-3.054 12.885-8.004c-2.539-4.95-7.435-8.004-12.885-8.004s-10.346 3.054-12.885 8.004z"/></g><g><path d="m32.003 17.498c-3.309 0-6-2.692-6-6.002s2.691-6.002 6-6.002 6 2.692 6 6.002-2.691 6.002-6 6.002zm0-10.004c-2.206 0-4 1.795-4 4.002s1.794 4.002 4 4.002 4-1.795 4-4.002-1.794-4.002-4-4.002z"/></g></g></g></svg>