<svg id="icons" enable-background="new 0 0 64 64" height="512" viewBox="0 0 64 64" width="512" xmlns="http://www.w3.org/2000/svg"><g><g><path d="m47 27.5h-8c-.553 0-1-.448-1-1s.447-1 1-1h8c.553 0 1 .448 1 1s-.447 1-1 1z"/></g><g><path d="m51 24.5h-16c-.553 0-1-.448-1-1s.447-1 1-1h16c.553 0 1 .448 1 1s-.447 1-1 1z"/></g><g><path d="m63 32.501h-40c-.553 0-1-.448-1-1v-6c0-.552.447-1 1-1s1 .448 1 1v5h38v-28h-38v19c0 .552-.447 1-1 1s-1-.448-1-1v-20c0-.552.447-1 1-1h40c.553 0 1 .448 1 1v30c0 .552-.447 1-1 1z"/></g><g><path d="m5 32.5c-.553 0-1-.448-1-1v-5c0-.552.447-1 1-1s1 .448 1 1v5c0 .552-.447 1-1 1z"/></g><g><path d="m9 22.502h-4c-.553 0-1-.448-1-1s.447-1 1-1h4c.553 0 1 .448 1 1s-.447 1-1 1z"/></g><g><path d="m1 26.5c-.553 0-1-.448-1-1 0-2.757 2.243-5 5-5 .553 0 1 .448 1 1s-.447 1-1 1c-1.654 0-3 1.346-3 3 0 .552-.447 1-1 1z"/></g><g><path d="m1 32.5c-.553 0-1-.448-1-1v-6c0-.552.447-1 1-1s1 .448 1 1v6c0 .552-.447 1-1 1z"/></g><g><path d="m19 32.5c-.553 0-1-.448-1-1v-6c0-.552.447-1 1-1s1 .448 1 1v6c0 .552-.447 1-1 1z"/></g><g><path d="m24 26.5h-5c-.553 0-1-.448-1-1s.447-1 1-1h5c.553 0 1 .448 1 1s-.447 1-1 1z"/></g><g><path d="m31 19.5c-.553 0-1-.448-1-1 0-.551-.448-1-1-1s-1 .449-1 1c0 .552-.447 1-1 1s-1-.448-1-1c0-1.654 1.346-3 3-3s3 1.346 3 3c0 .552-.447 1-1 1z"/></g><g><path d="m24 26.5c-.553 0-1-.448-1-1s.447-1 1-1c3.309 0 6-2.691 6-6 0-.552.447-1 1-1s1 .448 1 1c0 4.411-3.589 8-8 8z"/></g><g><path d="m24 22.5c-.553 0-1-.448-1-1s.447-1 1-1c1.103 0 2-.897 2-2 0-.552.447-1 1-1s1 .448 1 1c0 2.206-1.794 4-4 4z"/></g><g><g><path d="m61.002 43.502c-.553 0-1-.447-1-1 0-1.104-.898-2.001-2.002-2.001-.553 0-1-.447-1-1s.447-1 1-1c2.207 0 4.002 1.795 4.002 4.001 0 .553-.447 1-1 1z"/></g><g><path d="m58 40.501c-.553 0-1-.447-1-1v-3c0-.553.447-1 1-1s1 .447 1 1v3c0 .553-.447 1-1 1z"/></g><g><path d="m47 43.501c-.553 0-1-.447-1-1 0-3.859 3.141-7 7-7 .553 0 1 .447 1 1s-.447 1-1 1c-2.757 0-5 2.243-5 5 0 .553-.447 1-1 1z"/></g><g><path d="m58 37.501h-5c-.553 0-1-.447-1-1s.447-1 1-1h5c.553 0 1 .447 1 1s-.447 1-1 1z"/></g></g><g><path d="m54 52.501c-5.554 0-7.802-4.367-7.895-4.553-.247-.494-.047-1.095.447-1.342.492-.244 1.092-.048 1.34.443.074.145 1.82 3.451 6.107 3.451 4.332 0 6.088-3.413 6.105-3.447.248-.494.848-.692 1.342-.447.494.247.694.848.447 1.342-.091.186-2.339 4.553-7.893 4.553z"/></g><g><path d="m47 48.501c-.553 0-1-.447-1-1v-5.004c0-.553.447-1 1-1s1 .447 1 1v5.004c0 .553-.447 1-1 1z"/></g><g><path d="m61 48.501c-.553 0-1-.447-1-1v-5.004c0-.553.447-1 1-1s1 .447 1 1v5.004c0 .553-.447 1-1 1z"/></g><g><path d="m45 61.496c-.553 0-1-.447-1-1 0-2.205 1.794-3.999 4-3.999.553 0 1 .447 1 1s-.447 1-1 1c-1.103 0-2 .896-2 1.999 0 .553-.447 1-1 1z"/></g><g><path d="m51 58.503h-3c-.553 0-1-.447-1-1s.447-1 1-1h3c.553 0 1 .447 1 1s-.447 1-1 1z"/></g><g><path d="m45 63.5c-.553 0-1-.447-1-1v-2.004c0-.553.447-1 1-1s1 .447 1 1v2.004c0 .553-.447 1-1 1z"/></g><g><path d="m63 61.496c-.553 0-1-.447-1-1 0-1.103-.897-1.999-2-1.999-.553 0-1-.447-1-1s.447-1 1-1c2.206 0 4 1.794 4 3.999 0 .553-.447 1-1 1z"/></g><g><path d="m60 58.503h-3c-.553 0-1-.447-1-1s.447-1 1-1h3c.553 0 1 .447 1 1s-.447 1-1 1z"/></g><g><path d="m63 63.5c-.553 0-1-.447-1-1v-2.004c0-.553.447-1 1-1s1 .447 1 1v2.004c0 .553-.447 1-1 1z"/></g><g><path d="m51 58.503c-.553 0-1-.447-1-1v-3.684c0-.553.447-1 1-1s1 .447 1 1v3.684c0 .553-.447 1-1 1z"/></g><g><path d="m57 58.496c-.553 0-1-.447-1-1v-3.677c0-.553.447-1 1-1s1 .447 1 1v3.677c0 .553-.447 1-1 1z"/></g><g><path d="m54 55.493c-4.411 0-8-3.588-8-7.997 0-.553.447-1 1-1s1 .447 1 1c0 3.307 2.691 5.997 6 5.997s6-2.69 6-5.997c0-.553.447-1 1-1s1 .447 1 1c0 4.409-3.589 7.997-8 7.997z"/></g><g><path d="m57 58.496h-6c-.553 0-1-.447-1-1s.447-1 1-1h6c.553 0 1 .447 1 1s-.447 1-1 1z"/></g><g><path d="m10 52.501c-5.554 0-7.802-4.367-7.895-4.553-.247-.494-.047-1.095.447-1.342.493-.244 1.092-.048 1.34.443.074.145 1.82 3.451 6.107 3.451 4.332 0 6.088-3.413 6.105-3.447.248-.494.849-.692 1.342-.447.494.247.694.848.447 1.342-.091.186-2.339 4.553-7.893 4.553z"/></g><g><path d="m3 48.501c-.553 0-1-.447-1-1v-4.004c0-.553.447-1 1-1s1 .447 1 1v4.004c0 .553-.447 1-1 1z"/></g><g><path d="m17 48.501c-.553 0-1-.447-1-1v-4.004c0-.553.447-1 1-1s1 .447 1 1v4.004c0 .553-.447 1-1 1z"/></g><g><path d="m1 61.496c-.553 0-1-.447-1-1 0-2.205 1.794-3.999 4-3.999.553 0 1 .447 1 1s-.447 1-1 1c-1.103 0-2 .896-2 1.999 0 .553-.447 1-1 1z"/></g><g><path d="m7 58.503h-3c-.553 0-1-.447-1-1s.447-1 1-1h3c.553 0 1 .447 1 1s-.447 1-1 1z"/></g><g><path d="m1 63.5c-.553 0-1-.447-1-1v-2.004c0-.553.447-1 1-1s1 .447 1 1v2.004c0 .553-.447 1-1 1z"/></g><g><path d="m19 61.496c-.553 0-1-.447-1-1 0-1.103-.897-1.999-2-1.999-.553 0-1-.447-1-1s.447-1 1-1c2.206 0 4 1.794 4 3.999 0 .553-.447 1-1 1z"/></g><g><path d="m16 58.503h-3c-.553 0-1-.447-1-1s.447-1 1-1h3c.553 0 1 .447 1 1s-.447 1-1 1z"/></g><g><path d="m19 63.5c-.553 0-1-.447-1-1v-2.004c0-.553.447-1 1-1s1 .447 1 1v2.004c0 .553-.447 1-1 1z"/></g><g><path d="m7 58.503c-.553 0-1-.447-1-1v-3.684c0-.553.447-1 1-1s1 .447 1 1v3.684c0 .553-.447 1-1 1z"/></g><g><path d="m13 58.496c-.553 0-1-.447-1-1v-3.677c0-.553.447-1 1-1s1 .447 1 1v3.677c0 .553-.447 1-1 1z"/></g><g><path d="m10 55.493c-4.411 0-8-3.588-8-7.997 0-.553.447-1 1-1s1 .447 1 1c0 3.307 2.691 5.997 6 5.997s6-2.69 6-5.997c0-.553.447-1 1-1s1 .447 1 1c0 4.409-3.589 7.997-8 7.997z"/></g><g><path d="m17 44.497c-.553 0-1-.447-1-1 0-3.307-2.691-5.996-6-5.996s-6 2.689-6 5.996c0 .553-.447 1-1 1s-1-.447-1-1c0-4.409 3.589-7.996 8-7.996s8 3.587 8 7.996c0 .553-.447 1-1 1z"/></g><g><path d="m13 58.496h-6c-.553 0-1-.447-1-1s.447-1 1-1h6c.553 0 1 .447 1 1s-.447 1-1 1z"/></g><g><g><path d="m41 55.501c-.553 0-1-.447-1-1v-9.958c0-.553.447-1 1-1s1 .447 1 1v9.958c0 .553-.447 1-1 1z"/></g><g><path d="m41 55.501h-18c-.553 0-1-.447-1-1s.447-1 1-1h18c.553 0 1 .447 1 1s-.447 1-1 1z"/></g><g><path d="m23 55.501c-.553 0-1-.447-1-1v-9.958c0-.553.447-1 1-1s1 .447 1 1v9.958c0 .553-.447 1-1 1z"/></g><g><path d="m41 45.543c-.553 0-1-.447-1-1 0-4.411-3.589-8-8-8s-8 3.589-8 8c0 .553-.447 1-1 1s-1-.447-1-1c0-5.514 4.486-10 10-10s10 4.486 10 10c0 .553-.447 1-1 1z"/></g><g><g><path d="m23 61.496c-.553 0-1-.447-1-1 0-2.205 1.794-3.999 4-3.999.553 0 1 .447 1 1s-.447 1-1 1c-1.103 0-2 .896-2 1.999 0 .553-.447 1-1 1z"/></g><g><path d="m29 58.503h-3c-.553 0-1-.447-1-1s.447-1 1-1h3c.553 0 1 .447 1 1s-.447 1-1 1z"/></g><g><path d="m23 63.5c-.553 0-1-.447-1-1v-2.004c0-.553.447-1 1-1s1 .447 1 1v2.004c0 .553-.447 1-1 1z"/></g><g><path d="m41 61.496c-.553 0-1-.447-1-1 0-1.103-.897-1.999-2-1.999-.553 0-1-.447-1-1s.447-1 1-1c2.206 0 4 1.794 4 3.999 0 .553-.447 1-1 1z"/></g><g><path d="m38 58.503h-3c-.553 0-1-.447-1-1s.447-1 1-1h3c.553 0 1 .447 1 1s-.447 1-1 1z"/></g><g><path d="m41 63.5c-.553 0-1-.447-1-1v-2.004c0-.553.447-1 1-1s1 .447 1 1v2.004c0 .553-.447 1-1 1z"/></g><g><path d="m29 58.503c-.553 0-1-.447-1-1v-3.002c0-.553.447-1 1-1s1 .447 1 1v3.002c0 .553-.447 1-1 1z"/></g><g><path d="m35 58.496c-.553 0-1-.447-1-1v-2.995c0-.553.447-1 1-1s1 .447 1 1v2.995c0 .553-.447 1-1 1z"/></g><g><path d="m32 59.496c-.104 0-.211-.017-.316-.052l-3-1c-.523-.174-.807-.74-.632-1.265.175-.523.735-.809 1.265-.632l3 1c.523.174.807.74.632 1.265-.14.419-.53.684-.949.684z"/></g><g><path d="m32 59.496c-.419 0-.809-.265-.948-.684-.175-.524.108-1.091.632-1.265l3-1c.529-.177 1.09.108 1.265.632s-.108 1.091-.632 1.265l-3 1c-.106.035-.213.052-.317.052z"/></g></g></g><g><path d="m5 13.5c-.553 0-1-.448-1-1v-2.867c0-.552.447-1 1-1s1 .448 1 1v2.867c0 .552-.447 1-1 1z"/></g><g><path d="m19 13.5c-.553 0-1-.448-1-1v-3.5c0-.552.447-1 1-1s1 .448 1 1v3.5c0 .552-.447 1-1 1z"/></g><g><path d="m19 10c-.553 0-1-.448-1-1 0-3.584-2.916-6.5-6.501-6.5-3.584 0-6.499 2.916-6.499 6.5 0 .552-.447 1-1 1s-1-.448-1-1c0-4.687 3.813-8.5 8.499-8.5 4.688 0 8.501 3.813 8.501 8.5 0 .552-.447 1-1 1z"/></g><g><path d="m19.001 11.371c-.301 0-.598-.135-.795-.392-1.931-2.522-2.457-2.313-4.414-1.538-1.878.744-4.716 1.869-9.948 1.042-.545-.085-.918-.597-.831-1.143.085-.545.599-.916 1.144-.832 4.693.742 7.123-.222 8.899-.926 2.409-.955 4.024-1.364 6.738 2.181.336.438.253 1.066-.186 1.402-.181.139-.395.206-.607.206z"/></g><g><path d="m14.999 8.977c-.147 0-.298-.033-.439-.103-.496-.243-.7-.843-.457-1.338l2-4.072c.243-.495.841-.703 1.338-.457.496.243.7.843.457 1.338l-2 4.072c-.174.354-.53.56-.899.56z"/></g><g><path d="m24 22.5-9-.004c-.553 0-1-.448-1-1s.448-1 1-1l9 .004c.553 0 1 .448 1 1s-.448 1-1 1z"/></g><g><path d="m9 22.502c-.553 0-1-.448-1-1v-2.684c0-.552.447-1 1-1s1 .448 1 1v2.684c0 .552-.447 1-1 1z"/></g><g><path d="m15 22.496c-.553 0-1-.448-1-1v-2.678c0-.552.447-1 1-1s1 .448 1 1v2.678c0 .552-.447 1-1 1z"/></g><g><path d="m12 20.492c-4.411 0-8-3.587-8-7.996 0-.552.447-1 1-1s1 .448 1 1c0 3.306 2.691 5.996 6 5.996s6-2.69 6-5.996c0-.552.447-1 1-1s1 .448 1 1c0 4.409-3.589 7.996-8 7.996z"/></g><g><path d="m10.001 23.496c-.367 0-.72-.202-.896-.553-.247-.494-.047-1.095.447-1.342l2-1c.494-.247 1.095-.047 1.342.447s.047 1.095-.447 1.342l-2 1c-.143.072-.296.106-.446.106z"/></g><g><path d="m14 23.496c-.256 0-.512-.098-.707-.293-.391-.391-.391-1.023 0-1.414l1-1c.391-.391 1.023-.391 1.414 0s.391 1.023 0 1.414l-1 1c-.195.195-.451.293-.707.293z"/></g><g><path d="m10 23.496c-.256 0-.512-.098-.707-.293l-1-1c-.391-.391-.391-1.023 0-1.414s1.023-.391 1.414 0l1 1c.391.391.391 1.023 0 1.414-.195.195-.451.293-.707.293z"/></g><g><path d="m13.999 23.496c-.15 0-.303-.034-.446-.105l-2-1c-.494-.247-.694-.848-.447-1.342.248-.494.848-.694 1.342-.447l2 1c.494.247.694.848.447 1.342-.176.35-.529.552-.896.552z"/></g><g><path d="m4 10.496c-.553 0-1-.448-1-1v-.496c0-.552.447-1 1-1s1 .448 1 1v.496c0 .552-.447 1-1 1z"/></g><g><g><path d="m50.003 17.502h-14.002c-.553 0-1-.448-1-1v-4c0-.552.447-1 1-1h14.002c.553 0 1 .448 1 1v4c0 .552-.447 1-1 1zm-13.002-2h12.002v-2h-12.002z"/></g><g><path d="m40.001 20.502h-4.001c-.553 0-1-.448-1-1v-3c0-.552.447-1 1-1h4.001c.553 0 1 .448 1 1v3c0 .552-.447 1-1 1zm-3.001-2h2.001v-1h-2.001z"/></g><g><path d="m50.005 20.502h-4.001c-.553 0-1-.448-1-1v-3c0-.552.447-1 1-1h4.001c.553 0 1 .448 1 1v3c0 .552-.447 1-1 1zm-3.001-2h2.001v-1h-2.001z"/></g><g><path d="m49.004 9.5c-.553 0-1-.448-1-1 0-.551-.448-1-1-1h-8.003c-.552 0-1 .449-1 1 0 .552-.447 1-1 1s-1-.448-1-1c0-1.654 1.346-3 3-3h8.003c1.654 0 3 1.346 3 3 0 .552-.447 1-1 1z"/></g><g><path d="m37.001 13.502c-.553 0-1-.448-1-1v-4.002c0-.552.447-1 1-1s1 .448 1 1v4.002c0 .552-.447 1-1 1z"/></g><g><path d="m49.004 13.502c-.553 0-1-.448-1-1v-4.002c0-.552.447-1 1-1s1 .448 1 1v4.002c0 .552-.447 1-1 1z"/></g><g><path d="m39.031 15.502c-.553 0-1.005-.448-1.005-1s.442-1 .994-1h.011c.552 0 1 .448 1 1s-.448 1-1 1z"/></g><g><path d="m47.034 15.502c-.553 0-1.005-.448-1.005-1s.442-1 .994-1h.011c.552 0 1 .448 1 1s-.448 1-1 1z"/></g></g></g></svg>