<?xml version="1.0" encoding="iso-8859-1"?>
<!-- Generator: Adobe Illustrator 19.0.0, SVG Export Plug-In . SVG Version: 6.00 Build 0)  -->
<svg version="1.1" id="Capa_1" xmlns="http://www.w3.org/2000/svg" xmlns:xlink="http://www.w3.org/1999/xlink" x="0px" y="0px"
	 viewBox="0 0 480 480" style="enable-background:new 0 0 480 480;" xml:space="preserve">
<g>
	<g>
		<path d="M448,24H80c-17.673,0-32,14.327-32,32v256H8c-4.418,0-8,3.582-8,8c0,17.673,14.327,32,32,32h232v96
			c0.001,4.418,3.583,7.999,8.002,7.998c2.121,0,4.154-0.843,5.654-2.342L320,411.312l42.344,42.344
			c1.5,1.5,3.534,2.344,5.656,2.344c1.052,0.003,2.093-0.203,3.064-0.608c2.989-1.239,4.937-4.157,4.936-7.392v-96h24
			c17.673,0,32-14.327,32-32V64h40c4.418,0,8-3.582,8-8C480,38.327,465.673,24,448,24z M416,56v256h-32v16h29.848
			c-2.857,4.948-8.135,7.997-13.848,8h-24v-8h-16v100.688l-34.344-34.344c-3.124-3.123-8.188-3.123-11.312,0L280,428.688V328h-16v8
			H32c-5.713-0.003-10.991-3.052-13.848-8H56h200v-16H64V56c0-8.837,7.163-16,16-16h340.448C417.569,44.843,416.033,50.366,416,56z
			 M434.152,48c4.426-7.648,14.214-10.26,21.863-5.833c2.421,1.401,4.432,3.413,5.833,5.833H434.152z"/>
	</g>
</g>
<g>
	<g>
		<path d="M395.416,274.36L385.168,256l10.288-18.344c2.168-3.85,0.805-8.728-3.044-10.896c-0.194-0.109-0.393-0.211-0.596-0.304
			l-19.096-8.744l-2.464-20.88c-0.521-4.387-4.501-7.521-8.888-7c-0.204,0.024-0.407,0.056-0.608,0.096l-20.624,4.088
			l-14.264-15.448c-3.193-3.243-8.41-3.284-11.653-0.091c-0.031,0.03-0.061,0.061-0.091,0.091l-14.264,15.448l-20.624-4.088
			c-4.334-0.857-8.543,1.962-9.4,6.296c-0.04,0.201-0.072,0.404-0.096,0.608l-2.464,20.88l-19.096,8.76
			c-4.017,1.839-5.783,6.587-3.944,10.604c0.093,0.203,0.194,0.402,0.304,0.596L254.832,256l-10.288,18.344
			c-2.168,3.85-0.805,8.728,3.044,10.896c0.194,0.109,0.393,0.211,0.596,0.304l19.096,8.76l2.464,20.896
			c0.521,4.387,4.501,7.521,8.888,7c0.204-0.024,0.407-0.056,0.608-0.096l20.624-4.088l14.264,15.448
			c3.001,3.243,8.062,3.439,11.305,0.439c0.152-0.141,0.298-0.287,0.439-0.439l14.264-15.448l20.624,4.088
			c2.186,0.447,4.459-0.053,6.256-1.376c1.788-1.318,2.947-3.321,3.2-5.528l2.464-20.88l19.096-8.76
			c4.017-1.839,5.783-6.587,3.944-10.604C395.627,274.753,395.525,274.554,395.416,274.36z M369.024,259.904l8.232,14.688
			l-15.296,7.016c-2.536,1.164-4.282,3.565-4.608,6.336l-1.968,16.744l-16.536-3.272c-2.725-0.566-5.546,0.346-7.424,2.4L320,316.2
			l-11.424-12.368c-1.514-1.637-3.642-2.568-5.872-2.568c-0.522-0.003-1.042,0.051-1.552,0.16l-16.536,3.272l-1.968-16.744
			c-0.326-2.771-2.072-5.172-4.608-6.336l-15.296-7.016l8.232-14.688c1.376-2.44,1.409-5.403,0-7.824v0.032l-8.232-14.688
			l15.296-7.016c2.536-1.164,4.282-3.565,4.608-6.336l1.968-16.744l16.536,3.272c2.724,0.559,5.542-0.352,7.424-2.4L320,195.8
			l11.424,12.368c1.877,2.055,4.699,2.967,7.424,2.4l16.536-3.272l1.968,16.744c0.326,2.771,2.072,5.172,4.608,6.336l15.296,7.016
			l-8.232,14.688C367.662,254.51,367.662,257.474,369.024,259.904z"/>
	</g>
</g>
<g>
	<g>
		<path d="M320,216c-22.091,0-40,17.909-40,40c0.026,22.08,17.92,39.973,40,40c22.091,0,40-17.909,40-40
			C360,233.909,342.091,216,320,216z M320,280c-13.255,0-24-10.745-24-24c0-13.255,10.745-24,24-24s24,10.745,24,24
			C344,269.255,333.255,280,320,280z"/>
	</g>
</g>
<g>
	<g>
		<rect x="176" y="72" width="128" height="16"/>
	</g>
</g>
<g>
	<g>
		<rect x="96" y="120" width="288" height="16"/>
	</g>
</g>
<g>
	<g>
		<rect x="96" y="152" width="288" height="16"/>
	</g>
</g>
<g>
	<g>
		<rect x="104" y="256" width="104" height="16"/>
	</g>
</g>
<g>
</g>
<g>
</g>
<g>
</g>
<g>
</g>
<g>
</g>
<g>
</g>
<g>
</g>
<g>
</g>
<g>
</g>
<g>
</g>
<g>
</g>
<g>
</g>
<g>
</g>
<g>
</g>
<g>
</g>
</svg>
