<svg width="50" height="50" viewBox="0 0 50 50" fill="none" xmlns="http://www.w3.org/2000/svg">
<path d="M41.6667 6.25H8.33333C7.7808 6.25 7.25089 6.46949 6.86019 6.86019C6.46949 7.25089 6.25 7.7808 6.25 8.33333V41.6667C6.25 42.2192 6.46949 42.7491 6.86019 43.1398C7.25089 43.5305 7.7808 43.75 8.33333 43.75H26.2812V29.25H21.4104V23.5729H26.2812V19.4062C26.2812 14.5625 29.2396 11.9229 33.5729 11.9229C35.0292 11.9187 36.4875 11.9937 37.9375 12.1458V17.1875H34.9479C32.5979 17.1875 32.1396 18.3083 32.1396 19.9479V23.5625H37.7583L37.0292 29.2396H32.1375V43.75H41.6667C42.2192 43.75 42.7491 43.5305 43.1398 43.1398C43.5305 42.7491 43.75 42.2192 43.75 41.6667V8.33333C43.75 7.7808 43.5305 7.25089 43.1398 6.86019C42.7491 6.46949 42.2192 6.25 41.6667 6.25Z" fill="white"/>
</svg>
