<svg width="50" height="50" viewBox="0 0 50 50" fill="none" xmlns="http://www.w3.org/2000/svg">
<path d="M43.5 6.45625C41.9729 4.92917 40.1354 4.16667 37.9854 4.16667H11.9708C9.82082 4.16667 7.98332 4.92917 6.45624 6.45625C4.92916 7.98333 4.16666 9.82083 4.16666 11.9708V37.9854C4.16666 40.1354 4.92916 41.9729 6.45624 43.5C7.98332 45.0271 9.82082 45.7896 11.9708 45.7896H18.0417C18.4375 45.7896 18.7354 45.775 18.9354 45.7479C19.1681 45.7013 19.3781 45.5772 19.5312 45.3958C19.7292 45.1875 19.8292 44.8854 19.8292 44.4896L19.8146 42.6458C19.8062 41.4708 19.8021 40.5417 19.8021 39.8542L19.1771 39.9625C18.7812 40.0354 18.2812 40.0667 17.675 40.0583C17.0431 40.0467 16.4132 39.9833 15.7917 39.8687C15.13 39.7466 14.5071 39.468 13.975 39.0562C13.4177 38.6346 13.002 38.0533 12.7833 37.3896L12.5125 36.7646C12.2842 36.2716 11.9974 35.8078 11.6583 35.3833C11.2708 34.8771 10.8771 34.5354 10.4792 34.3542L10.2917 34.2187C10.1609 34.1251 10.042 34.016 9.93749 33.8937C9.83768 33.7803 9.75551 33.6525 9.69374 33.5146C9.63957 33.3875 9.68541 33.2833 9.82916 33.2021C9.97499 33.1188 10.2354 33.0792 10.6167 33.0792L11.1583 33.1625C11.5187 33.2333 11.9667 33.45 12.4979 33.8104C13.0355 34.1769 13.4846 34.6588 13.8125 35.2208C14.2292 35.9604 14.7292 36.525 15.3167 36.9146C15.9042 37.3021 16.4958 37.4979 17.0917 37.4979C17.6875 37.4979 18.2021 37.4521 18.6375 37.3625C19.0586 37.2754 19.4677 37.1384 19.8562 36.9542C20.0187 35.7458 20.4604 34.8125 21.1833 34.1625C20.2466 34.0707 19.3182 33.9077 18.4062 33.675C17.5162 33.4305 16.6603 33.0757 15.8583 32.6187C15.0192 32.1619 14.2781 31.5447 13.6771 30.8021C13.1 30.0792 12.625 29.1313 12.2542 27.9583C11.8854 26.7833 11.7 25.4271 11.7 23.8917C11.7 21.7063 12.4125 19.8458 13.8396 18.3083C13.1729 16.6667 13.2354 14.8229 14.0292 12.7833C14.5542 12.6188 15.3312 12.7417 16.3604 13.1479C17.3896 13.5542 18.1437 13.9021 18.6229 14.1896C19.1021 14.4813 19.4854 14.725 19.775 14.9229C21.4687 14.4516 23.219 14.2146 24.9771 14.2188C26.7667 14.2188 28.5 14.4542 30.1812 14.9229L31.2104 14.2729C32.002 13.7976 32.837 13.3986 33.7042 13.0813C34.6625 12.7188 35.3917 12.6208 35.9 12.7833C36.7125 14.825 36.7833 16.6667 36.1146 18.3104C37.5417 19.8458 38.2562 21.7063 38.2562 23.8938C38.2562 25.4292 38.0708 26.7896 37.7 27.9708C37.3312 29.1542 36.8521 30.1021 36.2646 30.8167C35.6529 31.5498 34.9087 32.1611 34.0708 32.6187C33.1958 33.1062 32.3458 33.4583 31.5229 33.675C30.611 33.9085 29.6826 34.0721 28.7458 34.1646C29.6833 34.9771 30.1542 36.2583 30.1542 38.0104V44.4896C30.1542 44.7958 30.1979 45.0438 30.2896 45.2333C30.3317 45.3247 30.3918 45.4066 30.4662 45.4742C30.5407 45.5419 30.628 45.5939 30.7229 45.6271C30.9229 45.6979 31.0979 45.7438 31.2521 45.7604C31.4062 45.7812 31.6271 45.7875 31.9146 45.7875H37.9854C40.1354 45.7875 41.9729 45.025 43.5 43.4979C45.025 41.9729 45.7896 40.1333 45.7896 37.9833V11.9708C45.7896 9.82083 45.025 7.98333 43.4979 6.45625H43.5Z" fill="white"/>
</svg>
