<svg width="50" height="50" viewBox="0 0 50 50" fill="none" xmlns="http://www.w3.org/2000/svg">
<path d="M41.6667 6.25H8.33333C7.7808 6.25 7.25089 6.46949 6.86019 6.86019C6.46949 7.25089 6.25 7.7808 6.25 8.33333V41.6667C6.25 42.2192 6.46949 42.7491 6.86019 43.1398C7.25089 43.5305 7.7808 43.75 8.33333 43.75H41.6667C42.2192 43.75 42.7491 43.5305 43.1398 43.1398C43.5305 42.7491 43.75 42.2192 43.75 41.6667V8.33333C43.75 7.7808 43.5305 7.25089 43.1398 6.86019C42.7491 6.46949 42.2192 6.25 41.6667 6.25ZM17.3729 38.2021H11.8062V20.3062H17.3729V38.2021ZM14.5896 17.8625C13.7343 17.8625 12.914 17.5227 12.3092 16.9179C11.7044 16.3131 11.3646 15.4928 11.3646 14.6375C11.3646 13.7822 11.7044 12.9619 12.3092 12.3571C12.914 11.7523 13.7343 11.4125 14.5896 11.4125C15.4449 11.4125 16.2652 11.7523 16.87 12.3571C17.4748 12.9619 17.8146 13.7822 17.8146 14.6375C17.8146 15.4928 17.4748 16.3131 16.87 16.9179C16.2652 17.5227 15.4449 17.8625 14.5896 17.8625ZM38.2042 38.2021H32.6437V29.5C32.6437 27.425 32.6062 24.7563 29.7521 24.7563C26.8562 24.7563 26.4167 27.0187 26.4167 29.3542V38.2042H20.8604V20.3083H26.1937V22.7542H26.2708C27.0104 21.3479 28.8271 19.8646 31.5292 19.8646C37.1625 19.8646 38.2021 23.5687 38.2021 28.3896V38.2021H38.2042Z" fill="white"/>
</svg>
